<?xml version="1.0" encoding="UTF-8"?>
<svg version="1.1" xmlns="http://www.w3.org/2000/svg" width="1395" height="397">
<path d="M0 0 C1.70736328 0.41765625 1.70736328 0.41765625 3.44921875 0.84375 C30.3500388 7.83254087 55.41995154 23.42864071 73 45 C73.66 45.66 74.32 46.32 75 47 C94 73.44267516 94 73.44267516 94 83 C94.66 83.33 95.32 83.66 96 84 C97.73711511 89.23178197 98.87558282 94.62051223 100.0625 100 C100.23587891 100.76828125 100.40925781 101.5365625 100.58789062 102.328125 C100.75611328 103.08609375 100.92433594 103.8440625 101.09765625 104.625 C101.24726807 105.29789062 101.39687988 105.97078125 101.55102539 106.6640625 C102.99087901 114.15537271 103.1307644 121.30776849 103.09765625 128.93359375 C103.09553383 130.78320457 103.09553383 130.78320457 103.09336853 132.67018127 C103.08778941 136.59264595 103.07524068 140.51505269 103.0625 144.4375 C103.05691698 147.10351479 103.05291987 149.76952904 103.04882812 152.43554688 C103.03782681 158.95705088 103.02110945 165.4785213 103 172 C100.14696299 172.04418044 97.29462284 172.07625743 94.44140625 172.1015625 C93.64206665 172.11517822 92.84272705 172.12879395 92.01916504 172.14282227 C80.88473407 172.21669193 71.83361695 168.84776508 63 162 C62.34 162.33 61.68 162.66 61 163 C58.3276379 163.13415472 55.67749512 163.04318541 53 163 C52.92652344 161.28103516 52.92652344 161.28103516 52.8515625 159.52734375 C52.77647199 157.99737465 52.70092694 156.46742782 52.625 154.9375 C52.57859375 153.80924805 52.57859375 153.80924805 52.53125 152.65820312 C52.2796995 147.81585604 51.37398496 143.67259769 50 139 C49.54941153 136.13554471 49.27457389 133.26097323 49 130.375 C48.82814474 128.77069119 48.65496035 127.16652421 48.48046875 125.5625 C48.1934891 122.87588203 47.92501962 120.19057323 47.67578125 117.5 C45.84723983 101.77061141 37.0185226 83.47768637 25 73 C24.31292969 72.84789062 23.62585938 72.69578125 22.91796875 72.5390625 C21.96857422 72.27222656 21.96857422 72.27222656 21 72 C20.32324327 70.67175961 19.65791255 69.33767459 19 68 C2.0313679 54.62261279 -18.85180434 50.05441424 -40 52 C-45.82477936 52.82264987 -51.38790697 54.25976944 -57 56 C-57.99515625 56.30035156 -58.9903125 56.60070312 -60.015625 56.91015625 C-62.32099959 57.7474857 -64.10993798 58.44082417 -66 60 C-67.22267708 63.62176584 -67.22267708 63.62176584 -67 67 C-67.73863281 66.95617187 -68.47726563 66.91234375 -69.23828125 66.8671875 C-75.86715132 66.88403342 -79.73528483 67.92997898 -84.75 72.375 C-91.99188761 79.69035604 -98.78602249 86.6990875 -99.09765625 97.33203125 C-99.08605469 98.48058594 -99.07445312 99.62914062 -99.0625 100.8125 C-99.05347656 101.97394531 -99.04445312 103.13539063 -99.03515625 104.33203125 C-99.02355469 105.21246094 -99.01195312 106.09289062 -99 107 C-102.465 107.495 -102.465 107.495 -106 108 C-108.47665066 116.85793072 -109.56292633 126.81726426 -109 136 C-108.95875 136.73476562 -108.9175 137.46953125 -108.875 138.2265625 C-108.4810559 143.00313468 -107.43762005 147.2104611 -105.796875 151.70703125 C-105 154 -105 154 -104.453125 156.26171875 C-101.49455838 168.35585933 -93.35967673 180.88714152 -84 189 C-81.35861536 190.2655534 -81.35861536 190.2655534 -79 191 C-79 191.66 -79 192.32 -79 193 C-60.19504225 209.13241854 -35.99971082 209.59029468 -12.65556049 209.47577858 C-9.12626864 209.46383794 -5.59708715 209.47798868 -2.06781006 209.4901123 C6.87149758 209.51663731 15.81067004 209.51017665 24.75 209.5 C34.42107988 209.48900273 44.09194931 209.48401401 53.76299405 209.51729441 C57.93854238 209.53053809 62.11347631 209.52489916 66.28898668 209.50392914 C69.51007167 209.4927204 72.73107113 209.50735549 75.95214844 209.51757812 C77.65134682 209.50060631 77.65134682 209.50060631 79.38487244 209.48329163 C87.50453116 209.54450299 94.37340011 211.28423911 102 214 C102.70884212 214.22407784 103.41768425 214.44815567 104.14800644 214.67902374 C109.25492701 216.48686089 111.90061766 219.77431692 115 224 C115.51691406 224.68320312 116.03382813 225.36640625 116.56640625 226.0703125 C123.12909839 235.24821278 125.27029995 243.2076134 125.1015625 254.38671875 C125.09056519 255.77570374 125.09056519 255.77570374 125.0793457 257.19274902 C125.06031931 259.46201264 125.03367217 261.73091437 125 264 C102.33828004 264.04675302 79.67656804 264.08200504 57.01480961 264.10362434 C46.49219715 264.11393006 35.96961469 264.12797695 25.44702148 264.15087891 C16.27386865 264.17083432 7.10073754 264.18372156 -2.07243639 264.18817699 C-6.92803262 264.19078072 -11.78356671 264.19688599 -16.63914299 264.21146011 C-21.2133778 264.22507799 -25.7875251 264.22921414 -30.36177826 264.22621536 C-32.03667489 264.22676365 -33.71157458 264.23071596 -35.38645363 264.23841095 C-45.91677663 264.28440051 -55.12624242 263.67277003 -65.04345703 259.75878906 C-66.97975798 259.00785029 -68.9261828 258.3487904 -70.90234375 257.7109375 C-95.79813084 249.55039608 -121.19104807 234.2134279 -136 212 C-137.485 211.01 -137.485 211.01 -139 210 C-139.680625 208.4840625 -139.680625 208.4840625 -140.375 206.9375 C-141.69600703 203.76102125 -141.69600703 203.76102125 -144.6875 203.125 C-145.450625 203.08375 -146.21375 203.0425 -147 203 C-147.02578125 202.43152344 -147.0515625 201.86304688 -147.078125 201.27734375 C-147.50388302 195.48122884 -148.69949704 191.80073158 -152 187 C-152.66 186.67 -153.32 186.34 -154 186 C-154 185.34 -154 184.68 -154 184 C-154.42269493 182.48957011 -154.88627335 180.99037435 -155.375 179.5 C-155.75785156 178.30890625 -155.75785156 178.30890625 -156.1484375 177.09375 C-156.91122195 174.82970921 -156.91122195 174.82970921 -159 173 C-159 171 -159 169 -159 167 C-159.65061095 165.32700041 -160.32033324 163.66140763 -161 162 C-163.71654208 152.78387025 -163.39990633 143.19964106 -163.375 133.6875 C-163.3737915 132.83996155 -163.37258301 131.9924231 -163.37133789 131.11920166 C-163.22496168 93.33896647 -149.50035821 60.56730823 -122.70800781 33.62890625 C-115.74278681 26.98625981 -108.06939506 21.08818233 -99.78808594 16.19335938 C-97.94349468 15.04976881 -97.94349468 15.04976881 -96.44140625 13.41748047 C-94.29397222 11.30569152 -91.85563919 10.87062171 -89 10 C-85.85416748 8.70880009 -82.73287117 7.36762864 -79.609375 6.0234375 C-77 5 -77 5 -75 5 C-75 4.34 -75 3.68 -75 3 C-70.75971337 2.1063073 -66.51333077 1.25389432 -62.2578125 0.43652344 C-60.78522495 0.15181468 -59.31378605 -0.13892103 -57.84375 -0.43652344 C-38.89674245 -4.2207763 -18.75391945 -5.16122101 0 0 Z M-101 94 C-100 96 -100 96 -100 96 Z M-102 96 C-101 98 -101 98 -101 98 Z M-103 98 C-103.33 98.99 -103.66 99.98 -104 101 C-103.34 101 -102.68 101 -102 101 C-102.33 100.01 -102.66 99.02 -103 98 Z M-105 102 C-104 104 -104 104 -104 104 Z M-158 170 C-157 172 -157 172 -157 172 Z " fill="#6C3FC6" transform="translate(163,109)"/>
<path d="M0 0 C2.51419645 0.00315701 5.02720778 -0.02038868 7.54125977 -0.0456543 C22.92704591 -0.10596784 37.21556214 1.52856198 51.21508789 8.31567383 C52.4930915 8.88872284 53.77177936 9.46024748 55.05102539 10.03051758 C71.41520426 17.52536648 83.42929927 28.43577017 92.21508789 44.31567383 C92.21508789 44.97567383 92.21508789 45.63567383 92.21508789 46.31567383 C92.87508789 46.64567383 93.53508789 46.97567383 94.21508789 47.31567383 C94.99633789 49.42504883 94.99633789 49.42504883 95.71508789 52.06567383 C96.42760078 54.6524054 97.12591378 57.11009734 98.19436646 59.57324219 C103.3509933 73.42785142 101.48046263 90.50339392 101.41787577 104.9771843 C101.40521049 108.4097487 101.40418566 111.84231818 101.40182495 115.27490234 C101.39565589 121.7484414 101.37930834 128.22191137 101.35912597 134.69542027 C101.33662288 142.07653588 101.32573764 149.45765513 101.3157351 156.83879662 C101.29493697 171.99779391 101.25985193 187.1567269 101.21508789 202.31567383 C101.87508789 202.64567383 102.53508789 202.97567383 103.21508789 203.31567383 C103.56571289 204.42942383 103.91633789 205.54317383 104.27758789 206.69067383 C105.21989293 208.93381948 105.83414683 210.06587641 107.88305664 211.40942383 C115.1638269 214.14142017 122.35534584 213.79169103 130.21508789 214.31567383 C130.21508789 226.52567383 130.21508789 238.73567383 130.21508789 251.31567383 C124.77008789 251.41879883 119.32508789 251.52192383 113.71508789 251.62817383 C112.03350586 251.67369385 110.35192383 251.71921387 108.61938477 251.76611328 C95.69652172 251.96744047 82.73382193 250.08636392 72.40258789 241.64770508 C71.21508789 240.31567383 71.21508789 240.31567383 71.21508789 238.31567383 C69.89508789 238.31567383 68.57508789 238.31567383 67.21508789 238.31567383 C65.56508789 231.38567383 63.91508789 224.45567383 62.21508789 217.31567383 C61.55508789 217.31567383 60.89508789 217.31567383 60.21508789 217.31567383 C58.64644707 218.86646453 58.64644707 218.86646453 57.02758789 220.87817383 C54.0573065 224.39020465 50.94140634 227.61661538 47.59790039 230.77270508 C45.97253743 232.38056249 45.97253743 232.38056249 45.21508789 235.31567383 C43.57276018 236.04023017 41.89883955 236.69341778 40.21508789 237.31567383 C36.92958846 239.01848106 33.85140302 240.6793587 31.21508789 243.31567383 C29.1327039 244.20203646 27.02412307 245.0276064 24.90258789 245.81567383 C23.77208008 246.23848633 22.64157227 246.66129883 21.47680664 247.09692383 C20.40043945 247.49911133 19.32407227 247.90129883 18.21508789 248.31567383 C17.31016602 248.6946582 16.40524414 249.07364258 15.47290039 249.46411133 C12.9206773 250.4267145 10.92052131 250.47027002 8.21508789 250.31567383 C7.88508789 250.97567383 7.55508789 251.63567383 7.21508789 252.31567383 C4.29638229 252.81496666 1.47052353 253.17230678 -1.47241211 253.44067383 C-2.80054932 253.56696167 -2.80054932 253.56696167 -4.15551758 253.69580078 C-10.90884189 254.27916601 -17.63283395 254.49734909 -24.40991211 254.50317383 C-25.73962036 254.50438232 -25.73962036 254.50438232 -27.09619141 254.50561523 C-35.23108753 254.43694056 -43.10025321 254.15565646 -50.78491211 251.31567383 C-52.48647461 250.94442383 -52.48647461 250.94442383 -54.22241211 250.56567383 C-64.40192945 248.05004598 -73.87529382 243.72407708 -82.51538086 237.83129883 C-84.68624467 236.2945613 -84.68624467 236.2945613 -86.85131836 235.37036133 C-89.31710968 234.02538424 -90.73560603 232.3360003 -92.53491211 230.19067383 C-93.14850586 229.4662207 -93.76209961 228.74176758 -94.39428711 227.99536133 C-94.85319336 227.44106445 -95.31209961 226.88676758 -95.78491211 226.31567383 C-96.44491211 226.64567383 -97.10491211 226.97567383 -97.78491211 227.31567383 C-100.11789871 227.35589774 -102.45197876 227.3588763 -104.78491211 227.31567383 C-104.78491211 225.66567383 -104.78491211 224.01567383 -104.78491211 222.31567383 C-103.13491211 221.98567383 -101.48491211 221.65567383 -99.78491211 221.31567383 C-100.1600293 220.73301758 -100.53514648 220.15036133 -100.92163086 219.55004883 C-107.17701312 209.52883191 -111.55898447 200.23335656 -111.78491211 188.31567383 C-111.81456055 187.5931543 -111.84420898 186.87063477 -111.87475586 186.1262207 C-112.66516637 166.53984833 -109.12057337 148.01994087 -95.97241211 132.65551758 C-86.61049028 122.64160477 -76.48151476 115.78369898 -63.59741211 111.12817383 C-62.97600342 110.90234619 -62.35459473 110.67651855 -61.71435547 110.44384766 C-59.42162006 109.66371031 -57.11140832 108.98969896 -54.78491211 108.31567383 C-53.66594543 107.98450058 -52.54697876 107.65332733 -51.394104 107.31211853 C-39.13117442 103.92940925 -27.33827182 103.79538789 -14.68725586 103.92504883 C-12.51437405 103.93252889 -10.34148539 103.93821345 -8.16859436 103.94219971 C-2.50837883 103.9573172 3.15141216 103.99647595 8.8114624 104.04101562 C14.61065939 104.08227142 20.40992641 104.10027483 26.20922852 104.12036133 C37.54469933 104.16298639 48.87985802 104.23106502 60.21508789 104.31567383 C60.09535248 99.97412013 59.95937766 95.63321838 59.82055664 91.29223633 C59.78700073 90.06835205 59.75344482 88.84446777 59.71887207 87.58349609 C59.23055548 72.89433802 55.94643265 61.53298888 45.09008789 51.12817383 C29.73609278 38.21744427 9.53927213 36.1343751 -9.78491211 37.31567383 C-27.05958199 39.07542256 -42.65839247 45.43483135 -54.03100586 58.92114258 C-58.48920214 65.00772235 -60.71511859 71.07139652 -62.78491211 78.31567383 C-76.31491211 78.31567383 -89.84491211 78.31567383 -103.78491211 78.31567383 C-103.09172962 71.38384897 -102.36913668 65.84636124 -100.15991211 59.44067383 C-99.89412354 58.66401367 -99.62833496 57.88735352 -99.35449219 57.0871582 C-95.29675199 45.68723405 -89.18969781 36.96059626 -80.78491211 28.31567383 C-79.98053711 27.42879883 -79.17616211 26.54192383 -78.34741211 25.62817383 C-74.44041799 22.10234987 -70.16196801 19.2250906 -65.78491211 16.31567383 C-65.0462793 15.7974707 -64.30764648 15.27926758 -63.54663086 14.74536133 C-56.24580315 9.92858036 -48.14113912 7.45984158 -39.83422852 4.9387207 C-38.08480628 4.40684966 -36.34569881 3.84124681 -34.60913086 3.26879883 C-23.12395613 0.4063038 -11.76838256 -0.0307685 0 0 Z M-62.78491211 153.31567383 C-66.96363822 158.83511534 -68.6022519 164.59250762 -69.78491211 171.31567383 C-70.06141602 172.24573242 -70.06141602 172.24573242 -70.34350586 173.19458008 C-72.06422894 181.46318743 -70.01228681 191.11045231 -65.78491211 198.31567383 C-58.51523528 208.30035241 -49.98520722 213.84710691 -38.13256836 216.96801758 C-35.63879653 217.51796201 -35.63879653 217.51796201 -32.78491211 216.31567383 C-32.78491211 216.97567383 -32.78491211 217.63567383 -32.78491211 218.31567383 C-11.53004219 221.81116968 12.81788506 219.14244708 31.21508789 207.31567383 C31.21508789 206.65567383 31.21508789 205.99567383 31.21508789 205.31567383 C31.87508789 205.13004883 32.53508789 204.94442383 33.21508789 204.75317383 C43.73866558 199.71062618 52.22259475 188.11679366 56.21508789 177.31567383 C59.50709599 167.82828937 60.46807611 159.26778951 60.32446289 149.25708008 C60.31656738 148.20041138 60.30867187 147.14374268 60.30053711 146.05505371 C60.28011318 143.47507332 60.25146443 140.8954702 60.21508789 138.31567383 C49.00041403 138.24579636 37.78579299 138.19267243 26.57094479 138.16023731 C21.36199627 138.14466075 16.15319801 138.1235709 10.94433594 138.08935547 C5.9062969 138.05647372 0.8684013 138.03876079 -4.16973686 138.0310421 C-6.08042085 138.02554983 -7.99109806 138.01482676 -9.90172005 137.99848366 C-29.04835835 137.84139827 -48.46985233 138.97518766 -62.78491211 153.31567383 Z " fill="#111727" transform="translate(664.784912109375,121.684326171875)"/>
<path d="M0 0 C2.34067576 0.01074713 4.68058712 0.00002164 7.02124023 -0.01269531 C19.19142068 -0.02399918 30.81454992 0.87243934 42.27709961 5.26074219 C43.28514648 5.62167969 44.29319336 5.98261719 45.33178711 6.35449219 C60.39832219 11.88479683 72.20535847 19.6603768 83.27709961 31.26074219 C83.81463867 31.75960937 84.35217773 32.25847656 84.90600586 32.77246094 C86.27709961 34.26074219 86.27709961 34.26074219 87.27709961 37.26074219 C88.26709961 37.92074219 89.25709961 38.58074219 90.27709961 39.26074219 C90.27709961 40.25074219 90.27709961 41.24074219 90.27709961 42.26074219 C90.97725634 43.90783221 91.73625155 45.53022534 92.52709961 47.13574219 C96.76618089 56.24013266 99.47015997 65.25469068 100.27709961 75.26074219 C100.60709961 76.25074219 100.93709961 77.24074219 101.27709961 78.26074219 C101.36074899 79.89021395 101.38612215 81.52297867 101.37716675 83.15457153 C101.37420593 84.16380173 101.37124512 85.17303192 101.36819458 86.21284485 C101.35988617 87.31935898 101.35157776 88.42587311 101.34301758 89.56591797 C101.3360083 91.31516319 101.3360083 91.31516319 101.32885742 93.0997467 C101.31834135 95.63702439 101.30567429 98.17429385 101.29113388 100.71155167 C101.26915583 104.73005731 101.25475872 108.7485137 101.24343872 112.76705933 C101.21002872 124.19470577 101.16855102 135.62227939 101.10571289 147.04980469 C101.07109177 153.36084946 101.04734531 159.67183946 101.03550446 165.98296916 C101.02875774 169.31952254 101.01466748 172.65566133 100.9904747 175.9921608 C100.96391687 179.72127391 100.95609495 183.45000306 100.95239258 187.17919922 C100.93385727 188.82075233 100.93385727 188.82075233 100.91494751 190.49546814 C100.93420612 197.87263779 101.4882015 204.86927145 106.32006836 210.74511719 C110.64124243 212.95993296 114.79645896 213.18436779 119.58959961 213.51074219 C124.38491211 213.88199219 124.38491211 213.88199219 129.27709961 214.26074219 C129.27709961 226.47074219 129.27709961 238.68074219 129.27709961 251.26074219 C123.77022461 251.34324219 118.26334961 251.42574219 112.58959961 251.51074219 C110.88070557 251.5471582 109.17181152 251.58357422 107.41113281 251.62109375 C94.35567821 251.78197238 81.53878166 249.94468424 71.60131836 240.70214844 C64.80397843 233.39880305 62.65086358 224.93131752 61.27709961 215.26074219 C60.52944336 216.17597656 59.78178711 217.09121094 59.01147461 218.03417969 C58.01704495 219.2350004 57.02223318 220.43550475 56.02709961 221.63574219 C55.5359668 222.23902344 55.04483398 222.84230469 54.53881836 223.46386719 C51.95206293 226.5679737 50.00190012 228.56920434 46.27709961 230.26074219 C45.94709961 231.25074219 45.61709961 232.24074219 45.27709961 233.26074219 C42.71459961 234.44824219 42.71459961 234.44824219 40.27709961 235.26074219 C40.27709961 235.92074219 40.27709961 236.58074219 40.27709961 237.26074219 C39.32834961 237.69386719 38.37959961 238.12699219 37.40209961 238.57324219 C34.07668024 240.05376419 34.07668024 240.05376419 32.27709961 243.26074219 C30.15209961 243.94824219 30.15209961 243.94824219 28.27709961 244.26074219 C28.27709961 244.92074219 28.27709961 245.58074219 28.27709961 246.26074219 C26.42163086 246.4235026 24.56616211 246.58626302 22.71069336 246.74902344 C20.00393293 247.31818173 17.68336435 248.39208896 15.16650391 249.5144043 C12.03172312 250.75268119 8.77088307 251.31691923 5.46459961 251.88574219 C4.8168457 252.00691406 4.1690918 252.12808594 3.50170898 252.25292969 C-5.72735531 253.91614989 -14.85560907 254.42316146 -24.22290039 254.38574219 C-25.19098633 254.38960937 -26.15907227 254.39347656 -27.15649414 254.39746094 C-35.10566189 254.38679091 -42.93996594 253.9632591 -50.72290039 252.26074219 C-51.38290039 252.26074219 -52.04290039 252.26074219 -52.72290039 252.26074219 C-52.72290039 251.60074219 -52.72290039 250.94074219 -52.72290039 250.26074219 C-54.57915039 249.92042969 -54.57915039 249.92042969 -56.47290039 249.57324219 C-74.60905274 245.48622194 -91.16347638 234.70709035 -102.09790039 219.69824219 C-113.68599397 200.66758641 -113.51558295 179.88672204 -110.72290039 158.26074219 C-110.06290039 158.26074219 -109.40290039 158.26074219 -108.72290039 158.26074219 C-108.61977539 157.40867187 -108.51665039 156.55660156 -108.41040039 155.67871094 C-105.6695443 142.0522957 -95.55528516 129.38408415 -84.71118164 121.17089844 C-62.31321382 106.85376606 -37.38242646 103.75862758 -11.40258789 103.96777344 C-9.3208141 103.9733855 -7.23903629 103.97764796 -5.15725708 103.9806366 C0.25790822 103.99195879 5.67282276 104.02131351 11.08789062 104.05474854 C16.63920706 104.08572549 22.19056496 104.09920029 27.74194336 104.11425781 C38.58710415 104.14619837 49.43208084 104.19723709 60.27709961 104.26074219 C60.12613117 100.89473115 59.9714666 97.52889948 59.81616211 94.16308594 C59.77370361 93.21542358 59.73124512 92.26776123 59.6875 91.29138184 C58.97137133 75.89461538 56.06958942 62.96344199 45.27709961 51.26074219 C36.03663624 44.07844654 25.77570135 39.9941135 14.27709961 38.26074219 C12.39571289 37.97650391 12.39571289 37.97650391 10.47631836 37.68652344 C6.35599096 37.18520731 2.34495813 37.32116397 -1.78540039 37.63574219 C-2.87099243 37.7090979 -2.87099243 37.7090979 -3.97851562 37.78393555 C-5.47686447 37.88580306 -6.97499889 37.99087431 -8.47290039 38.09912109 C-10.7015789 38.25921063 -12.93071294 38.40840435 -15.16040039 38.55371094 C-18.68166483 38.7832077 -22.20239144 39.01989223 -25.72290039 39.26074219 C-25.72290039 41.57074219 -25.72290039 43.88074219 -25.72290039 46.26074219 C-26.97393555 46.17373047 -26.97393555 46.17373047 -28.25024414 46.08496094 C-37.50863354 45.71377694 -42.95556125 46.95078614 -49.84008789 53.17480469 C-56.77493398 60.37134308 -60.59353571 68.87264815 -63.72290039 78.26074219 C-77.25290039 78.26074219 -90.78290039 78.26074219 -104.72290039 78.26074219 C-104.72290039 75.62074219 -104.72290039 72.98074219 -104.72290039 70.26074219 C-104.06290039 70.26074219 -103.40290039 70.26074219 -102.72290039 70.26074219 C-102.66102539 69.20886719 -102.59915039 68.15699219 -102.53540039 67.07324219 C-101.13339091 56.18366171 -95.51452507 46.38490264 -89.72290039 37.26074219 C-89.30137695 36.58140625 -88.87985352 35.90207031 -88.44555664 35.20214844 C-77.97084183 19.36663682 -57.75493142 9.9939147 -40.09790039 4.88574219 C-39.27636475 4.64718506 -38.4548291 4.40862793 -37.60839844 4.1628418 C-25.17100899 0.78458946 -12.81483464 -0.06981366 0 0 Z M-43.72290039 142.26074219 C-43.06290039 142.26074219 -42.40290039 142.26074219 -41.72290039 142.26074219 C-41.72290039 142.92074219 -41.72290039 143.58074219 -41.72290039 144.26074219 C-42.56852539 144.03386719 -43.41415039 143.80699219 -44.28540039 143.57324219 C-50.36669716 143.02039703 -54.2504917 145.67143602 -58.78540039 149.38574219 C-67.66293354 157.64270991 -70.34149847 165.57096326 -70.86743164 177.55371094 C-71.11320274 184.02251229 -71.11320274 184.02251229 -69.72290039 190.26074219 C-68.73290039 190.59074219 -67.74290039 190.92074219 -66.72290039 191.26074219 C-66.86727539 192.06511719 -67.01165039 192.86949219 -67.16040039 193.69824219 C-66.48405215 199.20564927 -63.58889184 202.40815106 -59.72290039 206.26074219 C-53.5513282 211.07735266 -47.22846746 214.18159689 -39.72290039 216.26074219 C-38.17602539 216.81761719 -38.17602539 216.81761719 -36.59790039 217.38574219 C-15.77125187 223.72428739 9.56608094 218.30561234 28.32397461 208.53808594 C33.73162467 205.55255887 38.02396596 201.71151216 42.27709961 197.26074219 C43.22456055 196.34228516 43.22456055 196.34228516 44.19116211 195.40527344 C57.45368977 181.70455654 60.35499048 162.67174091 60.29663086 144.38183594 C60.29381104 143.22997803 60.29099121 142.07812012 60.28808594 140.89135742 C60.28264771 139.58920288 60.28264771 139.58920288 60.27709961 138.26074219 C48.79384 138.237549 37.31058598 138.21979152 25.8273077 138.20893002 C20.49488941 138.20371646 15.16248718 138.19664655 9.83007812 138.18530273 C4.68186346 138.17441958 -0.46633579 138.16845384 -5.61456108 138.16586494 C-7.57649414 138.16402048 -9.53842638 138.16041872 -11.50035286 138.15501213 C-14.25302057 138.14772967 -17.00562495 138.14675429 -19.75830078 138.1472168 C-20.56534958 138.14362152 -21.37239838 138.14002625 -22.2039032 138.13632202 C-29.71817187 138.14994079 -37.01312229 138.6662182 -43.72290039 142.26074219 Z " fill="#111727" transform="translate(1265.722900390625,121.7392578125)"/>
<path d="M0 0 C0.76707275 -0.00173218 1.53414551 -0.00346436 2.32446289 -0.00524902 C32.86089344 0.02489709 58.57551217 8.98098907 83.4375 26.4375 C84.06664307 26.87610352 84.69578613 27.31470703 85.34399414 27.76660156 C89.08582878 30.39987079 92.24566201 33.16382001 95.4375 36.4375 C98.94246743 40.03549803 98.94246743 40.03549803 103.4375 41.4375 C103.4375 42.7575 103.4375 44.0775 103.4375 45.4375 C104.71844109 47.27383461 104.71844109 47.27383461 106.5 49 C110.30602107 53.09224623 113.11001497 57.51752521 115.95703125 62.3125 C116.68986328 63.364375 116.68986328 63.364375 117.4375 64.4375 C118.0975 64.4375 118.7575 64.4375 119.4375 64.4375 C121.41844859 68.14101257 122.71603644 71.31485107 123.4375 75.4375 C124.30800779 78.63373648 124.30800779 78.63373648 125.4375 81.4375 C126.0975 81.7675 126.7575 82.0975 127.4375 82.4375 C127.4375 83.7575 127.4375 85.0775 127.4375 86.4375 C128.0975 86.7675 128.7575 87.0975 129.4375 87.4375 C130.24693808 90.02533855 130.9368744 92.55523821 131.5625 95.1875 C131.83513672 96.26257813 131.83513672 96.26257813 132.11328125 97.359375 C133.03450764 101.12739874 133.66838267 104.52788683 133.4375 108.4375 C134.0975 108.7675 134.7575 109.0975 135.4375 109.4375 C135.84757137 112.22727299 135.84757137 112.22727299 136.05540466 115.95265198 C136.11186855 116.96029581 136.11186855 116.96029581 136.16947311 117.98829609 C136.56521721 125.7217929 136.57031205 133.45363288 136.55102539 141.19506836 C136.55074248 142.81302387 136.55090327 144.4309795 136.5514679 146.04893494 C136.55175183 150.39089497 136.54592113 154.7328267 136.53889394 159.07478023 C136.53259245 163.6311152 136.53205127 168.18745101 136.53086853 172.74378967 C136.52777508 181.34937636 136.51958877 189.95495016 136.50951904 198.5605312 C136.49829583 208.36722032 136.49283189 218.1739101 136.48782361 227.98060405 C136.47740425 248.13290986 136.45984373 268.28520411 136.4375 288.4375 C133.58446299 288.48168044 130.73212284 288.51375743 127.87890625 288.5390625 C127.07956665 288.55267822 126.28022705 288.56629395 125.45666504 288.58032227 C113.367162 288.66052821 102.9763872 284.73117893 94.25 276.33203125 C83.98001208 265.36353312 82.1293971 254.51227007 82.18212891 239.84375 C82.17669823 237.9954232 82.17669823 237.9954232 82.17115784 236.10975647 C82.16428727 233.44483557 82.16086512 230.78016838 82.16310501 228.11526489 C82.16596263 223.88398531 82.15149296 219.65286943 82.13412476 215.42163086 C82.08733808 203.39455634 82.06318966 191.36749364 82.05664062 179.34033203 C82.05286424 172.6855401 82.03462943 166.03093464 82.00154626 159.37622261 C81.98480639 155.8674133 81.97539895 152.35894274 81.98448563 148.85009766 C82.04941702 121.46739951 78.42993719 98.29576313 59.4375 77.4375 C53.12157205 71.35975317 53.12157205 71.35975317 45.4375 67.4375 C45.4375 66.7775 45.4375 66.1175 45.4375 65.4375 C40.85414092 63.51544619 36.15815967 61.98019924 31.4375 60.4375 C31.4375 59.7775 31.4375 59.1175 31.4375 58.4375 C30.52871094 58.25574219 30.52871094 58.25574219 29.6015625 58.0703125 C20.51953125 56.25390625 20.51953125 56.25390625 11.4375 54.4375 C11.4375 55.0975 11.4375 55.7575 11.4375 56.4375 C6.1575 56.4375 0.8775 56.4375 -4.5625 56.4375 C-4.5625 55.7775 -4.5625 55.1175 -4.5625 54.4375 C-7.5666672 55.08840289 -10.56523014 55.75591745 -13.5625 56.4375 C-14.53703125 56.65535156 -15.5115625 56.87320313 -16.515625 57.09765625 C-22.26873462 58.44742428 -27.50558327 60.06900775 -32.8203125 62.66796875 C-34.5625 63.4375 -34.5625 63.4375 -36.5625 63.4375 C-36.5625 65.0875 -36.5625 66.7375 -36.5625 68.4375 C-39.2025 68.4375 -41.8425 68.4375 -44.5625 68.4375 C-44.624375 69.05625 -44.68625 69.675 -44.75 70.3125 C-45.018125 71.01375 -45.28625 71.715 -45.5625 72.4375 C-46.30757813 72.72882813 -47.05265625 73.02015625 -47.8203125 73.3203125 C-50.92900567 74.58681713 -52.79213541 76.16741793 -55.25 78.4375 C-56.01699219 79.13875 -56.78398437 79.84 -57.57421875 80.5625 C-58.92275456 81.83420371 -60.25181713 83.12681713 -61.5625 84.4375 C-61.61520463 85.80643239 -61.61520463 85.80643239 -60.5625 88.4375 C-64.49906316 88.66684956 -68.43662098 88.8670249 -72.375 89.0625 C-73.47521484 89.12695312 -74.57542969 89.19140625 -75.70898438 89.2578125 C-82.97516236 89.60075895 -89.47584916 89.03603548 -96.5625 87.4375 C-98.22853499 87.10102371 -99.89502968 86.76678958 -101.5625 86.4375 C-101.5625 85.7775 -101.5625 85.1175 -101.5625 84.4375 C-102.28308594 84.19773437 -103.00367188 83.95796875 -103.74609375 83.7109375 C-106.9717027 82.25247908 -109.03776832 80.46978512 -111.625 78.0625 C-112.46160156 77.29164062 -113.29820313 76.52078125 -114.16015625 75.7265625 C-116.32780174 73.66113119 -118.45762599 71.56667972 -120.5625 69.4375 C-118.93752871 65.31741151 -115.95510442 62.5758356 -112.85546875 59.53515625 C-112.29305984 58.97557724 -111.73065094 58.41599823 -111.15119934 57.83946228 C-109.35545299 56.05487822 -107.55288953 54.27736445 -105.75 52.5 C-104.54836765 51.30840689 -103.3471908 50.11635424 -102.14648438 48.92382812 C-99.43532898 46.23258926 -96.72191702 43.54371842 -93.99716187 40.86624146 C-92.57790877 39.45284518 -91.19159837 38.00661914 -89.8059082 36.56030273 C-87.5625 34.4375 -87.5625 34.4375 -85.5625 34.4375 C-85.5625 33.7775 -85.5625 33.1175 -85.5625 32.4375 C-84.9025 32.4375 -84.2425 32.4375 -83.5625 32.4375 C-83.5625 31.7775 -83.5625 31.1175 -83.5625 30.4375 C-81.55235929 28.05904158 -79.427958 26.68227711 -76.6875 25.25 C-71.52582422 22.47908403 -66.61011271 19.35801459 -61.67578125 16.20703125 C-58.67659653 14.50235035 -55.86488292 13.40296427 -52.5625 12.4375 C-52.5625 11.7775 -52.5625 11.1175 -52.5625 10.4375 C-50.45998139 9.76565382 -48.35542237 9.10019032 -46.25 8.4375 C-45.07824219 8.06625 -43.90648437 7.695 -42.69921875 7.3125 C-39.5625 6.4375 -39.5625 6.4375 -36.5625 6.4375 C-36.5625 5.7775 -36.5625 5.1175 -36.5625 4.4375 C-35.10416667 4.14583333 -33.64583333 3.85416667 -32.1875 3.5625 C-31.37539062 3.40007812 -30.56328125 3.23765625 -29.7265625 3.0703125 C-28.68242187 2.86148437 -27.63828125 2.65265625 -26.5625 2.4375 C-25.9022583 2.27209717 -25.2420166 2.10669434 -24.56176758 1.9362793 C-16.43266965 0.03449034 -8.30059615 -0.00044517 0 0 Z " fill="#C845A5" transform="translate(236.5625,-0.4375)"/>
<path d="M0 0 C13.53 0 27.06 0 41 0 C40.67 23.1 40.34 46.2 40 70 C60.79 70 81.58 70 103 70 C103 82.21 103 94.42 103 107 C82.21 107 61.42 107 40 107 C40.06296927 126.48081239 40.1382294 145.9614521 40.23571491 165.4421196 C40.28059323 174.48825665 40.32002608 183.53435503 40.34643555 192.58056641 C40.36948032 200.46943856 40.4029502 208.35818751 40.44870156 216.24696183 C40.47254677 220.42021117 40.49133235 224.59333917 40.49761391 228.76665497 C40.50370443 232.70327508 40.52384551 236.63958505 40.55427551 240.57608986 C40.56299268 242.01265361 40.5667916 243.449258 40.56500816 244.88584709 C40.44621508 259.97160706 40.44621508 259.97160706 46.25 273.5625 C54.34295908 280.73580463 64.85371915 280.14350586 75.0625 280.31640625 C76.6103418 280.3475779 76.6103418 280.3475779 78.18945312 280.37937927 C81.45957296 280.44434105 84.72976755 280.50350965 88 280.5625 C90.22787206 280.60573607 92.45573679 280.64935192 94.68359375 280.69335938 C100.12232062 280.80067603 105.56111062 280.90014539 111 281 C111 293.21 111 305.42 111 318 C103.23325363 318.10559021 95.46918801 318.20566274 87.7023468 318.25875092 C84.08363342 318.28488266 80.46552956 318.31964279 76.84716797 318.37719727 C55.71765114 318.7042786 31.31360795 319.04793522 14.5703125 303.78515625 C1.95406309 289.0979376 -0.48141637 271.19197065 -0.34057617 252.53955078 C-0.33972763 250.9414471 -0.34020945 249.34334226 -0.34190369 247.74523926 C-0.34275623 243.45271139 -0.3252522 239.16044059 -0.30418181 234.8679719 C-0.28528985 230.36502835 -0.28365479 225.8620774 -0.28010559 221.35910034 C-0.2708216 212.85259507 -0.24625777 204.34620696 -0.21605712 195.83975303 C-0.18239886 186.14676359 -0.16599851 176.45376823 -0.15097082 166.7607348 C-0.1197045 146.84041016 -0.06473864 126.92024591 0 107 C-14.85 107 -29.7 107 -45 107 C-45 94.79 -45 82.58 -45 70 C-30.15 70 -15.3 70 0 70 C0 46.9 0 23.8 0 0 Z " fill="#121727" transform="translate(1029,55)"/>
<path d="M0 0 C13.53 0 27.06 0 41 0 C41 112.2 41 224.4 41 340 C27.47 340 13.94 340 0 340 C0 227.8 0 115.6 0 0 Z " fill="#121728" transform="translate(824,33)"/>
<path d="M0 0 C13.53 0 27.06 0 41 0 C41 81.84 41 163.68 41 248 C27.47 248 13.94 248 0 248 C0 166.16 0 84.32 0 0 Z " fill="#121728" transform="translate(918,125)"/>
<path d="M0 0 C3.72282364 0.47900891 6.26491608 2.3425495 9.3125 4.4375 C10.89804687 5.51257813 10.89804687 5.51257813 12.515625 6.609375 C14.29502992 7.82750477 16.07163497 9.04950014 17.84570312 10.27539062 C34.1202626 22.10673218 34.1202626 22.10673218 53.34765625 24.484375 C58.24395275 23.49049698 58.24395275 23.49049698 63 22 C63.495 20.515 63.495 20.515 64 19 C65.32 19 66.64 19 68 19 C68 18.34 68 17.68 68 17 C68.54785156 16.76667969 69.09570312 16.53335937 69.66015625 16.29296875 C76.33749689 13.22030631 81.97104802 9.25722439 87.73266602 4.74682617 C91.11087635 2.15530402 93.61323726 0.3676525 98 0 C99.17578125 1.69140625 99.17578125 1.69140625 100 4 C98.98046875 6.33984375 98.98046875 6.33984375 97.1875 8.9375 C96.53007812 9.91203125 95.87265625 10.8865625 95.1953125 11.890625 C93.74157024 13.94966207 92.27812742 16.00188722 90.8046875 18.046875 C78.60381909 34.54281373 78.60381909 34.54281373 75 54 C76.47395842 60.89983434 79.89243549 66.85426208 83.4375 72.875 C83.80858887 73.50559326 84.17967773 74.13618652 84.56201172 74.78588867 C86.97500046 78.72577299 89.69152003 81.74403559 93 85 C93 85.66 93 86.32 93 87 C93.66 87.66 94.32 88.32 95 89 C98.26720891 92.5642279 99.78254577 95.10727993 100 100 C99.34 100.66 98.68 101.32 98 102 C94.3476494 101.66473142 91.80614976 99.69596594 88.8515625 97.6484375 C87.8527002 96.96467041 86.85383789 96.28090332 85.82470703 95.57641602 C84.24085205 94.48671509 84.24085205 94.48671509 82.625 93.375 C65.81210496 80.89011298 65.81210496 80.89011298 46 77 C39.29779436 78.7136831 33.91873192 81.08126808 29 86 C27.275695 86.7482833 25.55013861 87.49416157 23.8125 88.2109375 C20.42403393 89.68608868 17.60994071 91.39005929 15 94 C13.22858169 95.21749861 11.4337187 96.40113772 9.625 97.5625 C8.19027344 98.49255859 8.19027344 98.49255859 6.7265625 99.44140625 C2.6728994 101.75861481 2.6728994 101.75861481 0 102 C-0.66 101.34 -1.32 100.68 -2 100 C-1.67511517 96.29707287 -0.5732516 93.98718653 1.66015625 91.06640625 C2.2030127 90.34211426 2.74586914 89.61782227 3.30517578 88.87158203 C3.88509277 88.10958496 4.46500977 87.34758789 5.0625 86.5625 C18.55554375 69.06514568 18.55554375 69.06514568 22.78125 48.078125 C20.50322707 36.74795834 13.13540322 24.13540322 5 16 C3.73524811 14.23327342 2.51043529 12.43769721 1.3125 10.625 C0.66925781 9.66851562 0.02601563 8.71203125 -0.63671875 7.7265625 C-2 5 -2 5 -1.76953125 2.7109375 C-1 1 -1 1 0 0 Z " fill="#2839DE" transform="translate(297,295)"/>
<path d="M0 0 C6.45414079 5.26427126 9.57313593 10.70721759 10.59765625 18.9609375 C11.04126844 27.19619976 9.72230905 33.29171666 4.421875 39.734375 C-0.25926843 44.66302716 -5.34604847 47.95223726 -12.27734375 48.5234375 C-16.96673861 48.38179451 -21.61182124 48.00833731 -26.27734375 47.5234375 C-26.27734375 46.8634375 -26.27734375 46.2034375 -26.27734375 45.5234375 C-26.86515625 45.41128906 -27.45296875 45.29914063 -28.05859375 45.18359375 C-32.57618124 43.8394524 -36.04055386 40.41935493 -38.58203125 36.5234375 C-42.45991703 29.05072331 -43.49867864 21.34911233 -41.33984375 13.1484375 C-38.82421998 6.40890592 -34.07649152 0.289988 -27.48828125 -2.7734375 C-18.07574853 -5.52200077 -8.43650137 -5.46997859 0 0 Z " fill="#121727" transform="translate(954.27734375,33.4765625)"/>
<path d="M0 0 C0.99 0.33 1.98 0.66 3 1 C3.84375 3.484375 3.84375 3.484375 4.5 6.75 C4.75007813 7.92433594 5.00015625 9.09867188 5.2578125 10.30859375 C5.73770532 12.69542908 6.21204712 15.08339015 6.6796875 17.47265625 C8.58415127 27.07926312 8.58415127 27.07926312 14 35 C23.58360871 41.00597529 36.95263244 42.03093267 48 43 C48 45.64 48 48.28 48 51 C45.36 51 42.72 51 40 51 C40 50.34 40 49.68 40 49 C25.10050592 51.29911173 25.10050592 51.29911173 12 58 C10.09197045 60.86975873 8.93983316 63.69580668 8 67 C7.78472656 67.71027344 7.56945312 68.42054688 7.34765625 69.15234375 C6.79095313 71.08598525 6.79095313 71.08598525 8 73 C7.34 73 6.68 73 6 73 C5.81824219 74.44632813 5.81824219 74.44632813 5.6328125 75.921875 C5.46523438 77.18515625 5.29765625 78.4484375 5.125 79.75 C4.96257812 81.00296875 4.80015625 82.2559375 4.6328125 83.546875 C4.0941645 86.48616408 3.51991159 88.47107147 2 91 C1.01 91 0.02 91 -1 91 C-2.76398159 87.10757781 -3.40643793 83.61118364 -3.875 79.375 C-4.94534317 71.40596059 -6.55492726 61.45352309 -13 56 C-22.39939459 51.10716446 -33.68008617 49.88655001 -44 48 C-44.495 46.515 -44.495 46.515 -45 45 C-42.55405625 42.55405625 -41.2040938 42.4706962 -37.8359375 41.8515625 C-36.27552734 41.54992187 -36.27552734 41.54992187 -34.68359375 41.2421875 C-32.50191975 40.83521644 -30.31963662 40.4314955 -28.13671875 40.03125 C-17.83786606 38.27283275 -17.83786606 38.27283275 -9.6887207 32.28466797 C-6.30507093 26.46455934 -5.37904312 19.50013837 -4 13 C-3.46979692 10.74727111 -2.9287396 8.49705924 -2.375 6.25 C-2.13523437 5.26515625 -1.89546875 4.2803125 -1.6484375 3.265625 C-1 1 -1 1 0 0 Z " fill="#2839DE" transform="translate(440,205)"/>
<path d="M0 0 C0.99 1.32 1.98 2.64 3 4 C3.54140625 4.67160156 4.0828125 5.34320313 4.640625 6.03515625 C5.17171875 6.70417969 5.7028125 7.37320312 6.25 8.0625 C6.79140625 8.73410156 7.3328125 9.40570313 7.890625 10.09765625 C8.25671875 10.72542969 8.6228125 11.35320312 9 12 C8.67 12.99 8.34 13.98 8 15 C5.36 15 2.72 15 0 15 C0 10.05 0 5.1 0 0 Z " fill="#000000" transform="translate(216,257)"/>
<path d="M0 0 C0 1.98 0 3.96 0 6 C-3.96 6 -7.92 6 -12 6 C-12.33 5.34 -12.66 4.68 -13 4 C-11.39850114 3.32694982 -9.79368971 2.66177773 -8.1875 2 C-7.29417969 1.62875 -6.40085937 1.2575 -5.48046875 0.875 C-3 0 -3 0 0 0 Z " fill="#000000" transform="translate(1240,162)"/>
<path d="M0 0 C0.33 0 0.66 0 1 0 C1 4.29 1 8.58 1 13 C-0.98 13.33 -2.96 13.66 -5 14 C-4.67 11.69 -4.34 9.38 -4 7 C-3.34 7 -2.68 7 -2 7 C-1.855625 6.21625 -1.71125 5.4325 -1.5625 4.625 C-1 2 -1 2 0 0 Z " fill="#000000" transform="translate(63,203)"/>
<path d="M0 0 C0 2.31 0 4.62 0 7 C-3.63 7 -7.26 7 -11 7 C-2.55172414 0 -2.55172414 0 0 0 Z " fill="#000000" transform="translate(96,169)"/>
<path d="M0 0 C2.12493141 -0.02693575 4.24995912 -0.04636628 6.375 -0.0625 C7.55835938 -0.07410156 8.74171875 -0.08570313 9.9609375 -0.09765625 C13 0 13 0 15 1 C15 1.66 15 2.32 15 3 C9.72 3 4.44 3 -1 3 C-0.67 2.01 -0.34 1.02 0 0 Z " fill="#000000" transform="translate(233,53)"/>
<path d="M0 0 C1.98 0 3.96 0 6 0 C6.66 1.32 7.32 2.64 8 4 C7 5 7 5 3.4375 5.0625 C2.303125 5.041875 1.16875 5.02125 0 5 C0 3.35 0 1.7 0 0 Z " fill="#000000" transform="translate(560,344)"/>
<path d="M0 0 C1.32 0 2.64 0 4 0 C4 2.64 4 5.28 4 8 C1.36 8 -1.28 8 -4 8 C-3.67 7.01 -3.34 6.02 -3 5 C-1.66666667 4.66666667 -0.33333333 4.33333333 1 4 C1.33 3.01 1.66 2.02 2 1 C1.34 0.67 0.68 0.34 0 0 Z " fill="#000000" transform="translate(484,248)"/>
<path d="M0 0 C0 0.99 0 1.98 0 3 C-4.29 3 -8.58 3 -13 3 C-13 2.67 -13 2.34 -13 2 C-8.46298506 0.54815522 -4.81938524 -0.23509196 0 0 Z " fill="#000000" transform="translate(176,85)"/>
<path d="M0 0 C2.34058637 2.12780579 3.70700306 4.11562221 5 7 C3.35 7 1.7 7 0 7 C0 4.69 0 2.38 0 0 Z " fill="#000000" transform="translate(16,305)"/>
<path d="M0 0 C0.33 0.66 0.66 1.32 1 2 C0.34 1.67 -0.32 1.34 -1 1 C-0.67 0.67 -0.34 0.34 0 0 Z " fill="#000000" transform="translate(327,381)"/>
<path d="M0 0 C0.33 0.66 0.66 1.32 1 2 C0.34 1.67 -0.32 1.34 -1 1 C-0.67 0.67 -0.34 0.34 0 0 Z " fill="#000000" transform="translate(1299,365)"/>
<path d="M0 0 C0.33 0.66 0.66 1.32 1 2 C0.34 1.67 -0.32 1.34 -1 1 C-0.67 0.67 -0.34 0.34 0 0 Z " fill="#000000" transform="translate(699,365)"/>
<path d="M0 0 C0.99 0.495 0.99 0.495 2 1 C1.01 1.495 1.01 1.495 0 2 C0 1.34 0 0.68 0 0 Z " fill="#000000" transform="translate(698,363)"/>
<path d="M0 0 C0.33 0.66 0.66 1.32 1 2 C0.34 1.67 -0.32 1.34 -1 1 C-0.67 0.67 -0.34 0.34 0 0 Z " fill="#000000" transform="translate(710,357)"/>
<path d="M0 0 C2 1 2 1 2 1 Z " fill="#000000" transform="translate(390,381)"/>
<path d="" fill="#000000" transform="translate(0,0)"/>
<path d="M0 0 C2 1 2 1 2 1 Z " fill="#000100" transform="translate(1178,358)"/>
<path d="" fill="#000100" transform="translate(0,0)"/>
<path d="" fill="#000000" transform="translate(0,0)"/>
<path d="" fill="#000000" transform="translate(0,0)"/>
<path d="" fill="#000004" transform="translate(0,0)"/>
<path d="" fill="#000000" transform="translate(0,0)"/>
<path d="" fill="#000000" transform="translate(0,0)"/>
<path d="" fill="#000000" transform="translate(0,0)"/>
<path d="" fill="#000000" transform="translate(0,0)"/>
<path d="" fill="#000000" transform="translate(0,0)"/>
<path d="" fill="#000100" transform="translate(0,0)"/>
<path d="" fill="#000000" transform="translate(0,0)"/>
<path d="" fill="#000000" transform="translate(0,0)"/>
<path d="" fill="#000000" transform="translate(0,0)"/>
<path d="" fill="#000100" transform="translate(0,0)"/>
<path d="" fill="#030000" transform="translate(0,0)"/>
<path d="" fill="#010000" transform="translate(0,0)"/>
<path d="" fill="#000002" transform="translate(0,0)"/>
<path d="" fill="#000100" transform="translate(0,0)"/>
<path d="" fill="#000000" transform="translate(0,0)"/>
<path d="" fill="#000000" transform="translate(0,0)"/>
<path d="" fill="#000000" transform="translate(0,0)"/>
<path d="" fill="#000100" transform="translate(0,0)"/>
<path d="" fill="#000000" transform="translate(0,0)"/>
<path d="" fill="#010000" transform="translate(0,0)"/>
<path d="" fill="#000000" transform="translate(0,0)"/>
</svg>
