<svg id="svg" version="1.1" width="400" height="400" viewBox="0 0 400 400" xmlns="http://www.w3.org/2000/svg" xmlns:xlink="http://www.w3.org/1999/xlink"><g id="svgg"><path id="path0" d="M193.000 95.415 C 192.780 95.499,191.070 95.753,189.200 95.979 C 175.460 97.641,162.689 103.398,152.000 112.747 C 147.439 116.737,133.600 130.491,133.600 131.034 C 133.600 131.911,140.273 137.844,142.452 138.905 C 151.934 143.522,160.086 142.185,168.590 134.621 C 175.169 128.768,181.541 125.442,189.800 123.550 C 194.632 122.443,206.943 122.991,209.695 124.435 C 210.077 124.636,210.637 124.800,210.940 124.800 C 211.242 124.800,212.786 125.334,214.370 125.988 C 225.870 130.730,235.167 140.806,238.741 152.400 C 239.182 153.830,239.771 155.720,240.050 156.600 C 240.437 157.820,240.610 166.698,240.779 194.000 C 240.984 227.136,241.054 229.949,241.720 231.800 C 245.338 241.849,252.388 246.792,263.303 246.936 L 268.200 247.000 268.196 203.400 C 268.192 171.559,268.062 158.937,267.711 156.600 C 266.981 151.729,266.123 147.462,265.622 146.200 C 265.447 145.760,264.894 144.140,264.394 142.600 C 257.411 121.112,237.849 103.016,215.800 97.648 C 207.513 95.631,195.521 94.456,193.000 95.415 M135.800 152.020 C 133.820 152.190,130.940 152.542,129.400 152.801 C 126.010 153.373,124.143 154.056,126.870 153.726 C 129.188 153.445,131.872 153.888,131.303 154.457 C 130.762 154.998,131.582 156.702,132.500 156.942 C 132.885 157.043,133.200 157.423,133.200 157.786 C 133.200 158.150,133.360 158.349,133.555 158.228 C 133.869 158.034,134.010 158.306,134.369 159.800 C 134.422 160.020,134.990 160.533,135.632 160.939 C 136.418 161.437,136.800 162.008,136.800 162.686 C 136.800 163.496,136.956 163.652,137.600 163.484 C 138.173 163.334,138.400 163.472,138.400 163.968 C 138.400 164.349,138.850 165.083,139.400 165.600 C 139.950 166.117,140.400 166.750,140.400 167.008 C 140.400 167.265,140.760 167.802,141.200 168.200 C 141.640 168.598,142.000 169.076,142.000 169.262 C 142.000 169.448,142.360 169.960,142.800 170.400 C 143.240 170.840,143.600 171.449,143.600 171.753 C 143.600 172.058,143.946 172.397,144.369 172.508 C 144.802 172.621,145.522 173.552,146.015 174.633 C 146.497 175.691,147.301 176.879,147.801 177.272 C 148.301 177.665,148.818 178.417,148.950 178.942 C 149.140 179.699,149.542 179.951,150.895 180.163 C 168.690 182.953,184.400 202.114,184.400 221.029 C 184.400 224.257,184.903 227.429,185.647 228.895 C 185.841 229.277,186.000 229.851,186.000 230.171 C 186.000 230.491,186.206 230.880,186.458 231.036 C 186.785 231.238,186.833 230.987,186.626 230.160 C 186.309 228.899,186.657 229.055,187.367 230.493 C 187.613 230.992,188.216 231.578,188.707 231.795 C 189.487 232.140,189.819 232.804,189.500 233.381 C 189.445 233.480,190.049 234.245,190.843 235.081 C 191.636 235.916,192.396 236.915,192.530 237.300 C 192.665 237.685,193.062 238.000,193.413 238.000 C 193.839 238.000,194.009 238.288,193.925 238.868 C 193.558 241.417,210.184 245.449,211.632 243.162 C 212.561 241.694,211.900 215.158,210.785 209.200 C 204.140 173.675,171.704 148.941,135.800 152.020 M122.590 154.416 C 122.421 154.689,122.723 154.738,123.466 154.560 C 124.999 154.192,125.144 154.000,123.890 154.000 C 123.317 154.000,122.732 154.187,122.590 154.416 M137.600 179.022 C 139.083 179.341,148.400 179.442,148.400 179.139 C 148.400 178.952,145.835 178.821,142.700 178.846 C 139.565 178.872,137.270 178.951,137.600 179.022 M186.800 231.828 C 186.800 232.763,192.464 239.200,193.287 239.200 C 193.959 239.200,193.549 238.508,192.566 237.982 C 191.998 237.678,191.145 236.882,190.671 236.214 C 190.197 235.546,189.312 234.478,188.704 233.841 C 188.097 233.203,187.600 232.438,187.600 232.141 C 187.600 231.843,187.420 231.600,187.200 231.600 C 186.980 231.600,186.800 231.703,186.800 231.828 M205.800 265.200 C 206.240 265.389,206.870 265.544,207.200 265.544 C 207.578 265.544,207.504 265.417,207.000 265.200 C 206.560 265.011,205.930 264.856,205.600 264.856 C 205.222 264.856,205.296 264.983,205.800 265.200 M210.400 266.702 C 210.400 266.869,210.985 267.259,211.700 267.570 C 212.415 267.881,213.090 268.241,213.200 268.370 C 213.310 268.499,214.120 269.134,215.000 269.782 C 215.880 270.429,216.891 271.283,217.247 271.679 C 217.603 272.076,218.041 272.400,218.222 272.400 C 218.928 272.400,216.062 269.802,213.530 268.146 C 210.796 266.358,210.400 266.176,210.400 266.702 M218.413 273.300 C 218.406 273.685,218.555 274.000,218.744 274.000 C 218.934 274.000,219.671 275.093,220.383 276.428 C 221.905 279.284,222.509 279.379,221.069 276.536 C 219.757 273.946,218.432 272.332,218.413 273.300 M222.028 280.100 C 222.013 280.705,222.180 281.200,222.400 281.200 C 222.869 281.200,222.869 280.893,222.400 279.800 C 222.095 279.091,222.053 279.125,222.028 280.100 M222.907 287.400 C 222.911 291.964,222.931 292.079,223.307 289.736 C 223.568 288.106,223.566 286.482,223.302 284.936 C 222.929 282.755,222.903 282.918,222.907 287.400 " stroke="none" fill="#bc45ab" fill-rule="evenodd"></path><path id="path1" d="M124.000 154.283 C 122.570 154.609,121.087 155.039,120.705 155.238 C 120.323 155.437,119.736 155.600,119.400 155.600 C 119.064 155.600,118.432 155.780,117.995 156.000 C 117.558 156.220,116.842 156.580,116.405 156.800 C 115.968 157.020,115.432 157.200,115.214 157.200 C 113.918 157.200,101.216 164.192,100.000 165.575 C 99.890 165.700,98.810 166.558,97.600 167.482 C 89.212 173.886,80.129 186.294,76.431 196.400 C 76.150 197.170,75.776 198.160,75.600 198.600 C 70.407 211.613,70.410 232.074,75.607 245.400 C 75.779 245.840,76.148 246.830,76.427 247.600 C 80.803 259.667,90.424 271.606,102.600 280.079 C 105.625 282.184,116.087 287.600,117.128 287.600 C 117.393 287.600,117.923 287.765,118.305 287.966 C 118.687 288.168,120.260 288.690,121.800 289.128 C 131.994 292.022,131.545 292.000,179.870 292.000 L 222.800 292.000 222.800 286.600 C 222.800 283.267,222.647 281.200,222.400 281.200 C 222.180 281.200,222.000 280.767,222.000 280.238 C 222.000 279.238,219.415 274.300,218.769 274.067 C 218.566 273.993,218.400 273.670,218.400 273.348 C 218.400 272.666,217.247 271.461,215.000 269.792 C 214.120 269.139,213.310 268.499,213.200 268.370 C 213.090 268.241,212.415 267.881,211.700 267.570 C 210.985 267.259,210.400 266.869,210.400 266.702 C 210.400 266.536,210.040 266.400,209.600 266.400 C 209.160 266.400,208.800 266.240,208.800 266.044 C 208.800 265.235,204.263 265.083,171.600 264.802 C 150.314 264.619,136.569 264.347,135.200 264.082 C 132.378 263.535,126.951 262.078,126.075 261.632 C 125.704 261.442,124.500 260.870,123.400 260.359 C 91.069 245.342,91.372 198.047,123.896 182.997 C 125.163 182.410,126.513 181.766,126.895 181.565 C 127.277 181.364,127.941 181.200,128.371 181.200 C 128.801 181.200,129.252 181.040,129.373 180.844 C 129.494 180.649,130.179 180.386,130.896 180.261 C 131.613 180.136,133.190 179.828,134.400 179.576 C 137.495 178.934,148.400 178.618,148.400 179.171 C 148.400 179.407,148.563 179.600,148.763 179.600 C 149.396 179.600,148.737 178.008,147.797 177.269 C 147.299 176.877,146.497 175.691,146.015 174.633 C 145.522 173.552,144.802 172.621,144.369 172.508 C 143.946 172.397,143.600 172.058,143.600 171.753 C 143.600 171.449,143.240 170.840,142.800 170.400 C 142.360 169.960,142.000 169.448,142.000 169.262 C 142.000 169.076,141.640 168.598,141.200 168.200 C 140.760 167.802,140.400 167.265,140.400 167.008 C 140.400 166.750,139.950 166.117,139.400 165.600 C 138.850 165.083,138.400 164.349,138.400 163.968 C 138.400 163.472,138.173 163.334,137.600 163.484 C 136.956 163.652,136.800 163.496,136.800 162.686 C 136.800 161.985,136.405 161.428,135.500 160.855 C 134.785 160.403,134.240 159.980,134.289 159.916 C 134.535 159.593,133.859 158.040,133.555 158.228 C 133.360 158.349,133.200 158.150,133.200 157.786 C 133.200 157.423,132.885 157.043,132.500 156.942 C 131.588 156.704,130.702 154.908,131.311 154.531 C 132.835 153.589,127.791 153.418,124.000 154.283 M304.197 204.805 C 304.059 205.028,303.600 207.143,303.177 209.505 C 300.790 222.818,299.536 223.992,285.080 226.438 C 281.091 227.113,279.694 228.771,283.094 228.794 C 283.586 228.797,284.756 228.973,285.694 229.184 C 286.632 229.395,288.480 229.780,289.800 230.041 C 299.786 232.010,301.520 234.418,303.812 249.500 C 304.241 252.325,305.336 251.817,305.967 248.500 C 307.756 239.094,307.766 239.053,309.066 236.099 C 310.453 232.946,313.603 231.194,320.000 230.018 C 322.500 229.558,325.609 228.958,327.500 228.569 C 328.565 228.351,328.701 227.334,327.700 227.068 C 327.315 226.966,325.830 226.668,324.400 226.406 C 310.147 223.792,308.641 222.423,306.572 210.200 C 305.654 204.775,305.056 203.415,304.197 204.805 M186.629 230.201 C 186.791 230.860,187.076 231.460,187.262 231.533 C 187.448 231.607,187.600 231.879,187.600 232.138 C 187.600 232.836,191.132 236.897,193.130 238.496 C 193.856 239.077,194.000 239.094,194.000 238.596 C 194.000 238.268,193.724 238.000,193.387 238.000 C 193.051 238.000,192.665 237.685,192.530 237.300 C 192.396 236.915,191.689 235.970,190.959 235.200 C 190.230 234.430,189.626 233.665,189.616 233.500 C 189.607 233.335,189.600 232.973,189.600 232.695 C 189.600 232.417,189.198 232.012,188.707 231.795 C 188.216 231.578,187.613 230.992,187.367 230.493 C 186.649 229.039,186.311 228.905,186.629 230.201 M228.353 252.500 C 228.241 253.677,228.619 254.407,231.306 258.200 C 242.070 273.396,243.281 277.406,239.542 285.457 C 238.680 287.314,232.994 296.383,232.431 296.800 C 231.545 297.456,228.400 302.881,228.400 303.754 C 228.400 305.446,229.173 305.091,236.996 299.797 C 254.390 288.028,255.357 288.110,277.088 303.170 C 280.824 305.760,282.076 304.570,279.521 300.858 C 264.070 278.411,264.049 277.857,277.899 258.051 C 283.132 250.566,281.791 250.193,272.468 256.539 C 266.253 260.769,262.175 263.130,258.800 264.452 C 257.140 265.102,251.680 265.162,250.341 264.545 C 246.168 262.623,242.459 260.441,236.732 256.541 C 230.473 252.279,228.465 251.310,228.353 252.500 " stroke="none" fill="#563fd1" fill-rule="evenodd"></path><path id="path2" d="M178.900 0.274 C 176.865 0.360,175.200 0.603,175.200 0.815 C 175.200 1.027,174.030 1.200,172.600 1.200 C 171.133 1.200,170.000 1.374,170.000 1.600 C 170.000 1.820,169.010 2.000,167.800 2.000 C 166.590 2.000,165.600 2.157,165.600 2.348 C 165.600 2.540,163.802 2.824,161.604 2.980 C 159.406 3.136,157.506 3.429,157.380 3.632 C 157.255 3.834,156.533 4.000,155.776 4.000 C 155.019 4.000,154.400 4.180,154.400 4.400 C 154.400 4.620,153.680 4.800,152.800 4.800 C 151.920 4.800,151.200 4.980,151.200 5.200 C 151.200 5.420,150.570 5.600,149.800 5.600 C 149.030 5.600,148.400 5.780,148.400 6.000 C 148.400 6.220,147.680 6.400,146.800 6.400 C 145.920 6.400,145.200 6.580,145.200 6.800 C 145.200 7.020,144.750 7.200,144.200 7.200 C 143.650 7.200,143.200 7.355,143.200 7.544 C 143.200 7.733,142.184 7.993,140.943 8.121 C 139.702 8.249,138.496 8.544,138.263 8.777 C 138.030 9.010,137.336 9.200,136.720 9.200 C 136.104 9.200,135.600 9.380,135.600 9.600 C 135.600 9.820,135.150 10.000,134.600 10.000 C 134.050 10.000,133.600 10.180,133.600 10.400 C 133.600 10.620,133.060 10.800,132.400 10.800 C 131.740 10.800,131.200 10.980,131.200 11.200 C 131.200 11.420,130.840 11.600,130.400 11.600 C 129.960 11.600,129.600 11.780,129.600 12.000 C 129.600 12.220,129.150 12.400,128.600 12.400 C 128.050 12.400,127.600 12.556,127.600 12.747 C 127.600 12.938,126.839 13.197,125.909 13.322 C 124.978 13.446,124.153 13.740,124.075 13.974 C 123.997 14.208,123.408 14.400,122.767 14.400 C 122.125 14.400,121.600 14.580,121.600 14.800 C 121.600 15.020,121.240 15.200,120.800 15.200 C 120.360 15.200,120.000 15.346,120.000 15.525 C 120.000 15.704,119.370 16.098,118.600 16.400 C 117.830 16.702,117.200 17.096,117.200 17.275 C 117.200 17.454,116.660 17.600,116.000 17.600 C 115.340 17.600,114.800 17.766,114.800 17.968 C 114.800 18.171,114.262 18.455,113.605 18.599 C 112.947 18.743,112.306 19.028,112.181 19.231 C 112.055 19.434,111.603 19.600,111.176 19.600 C 110.749 19.600,110.400 19.746,110.400 19.925 C 110.400 20.104,109.770 20.498,109.000 20.800 C 108.230 21.102,107.600 21.496,107.600 21.675 C 107.600 21.854,107.240 22.000,106.800 22.000 C 106.360 22.000,106.000 22.180,106.000 22.400 C 106.000 22.620,105.640 22.800,105.200 22.800 C 104.760 22.800,104.400 22.977,104.400 23.192 C 104.400 23.408,103.950 23.698,103.400 23.836 C 102.850 23.974,102.400 24.247,102.400 24.443 C 102.400 24.640,102.040 24.800,101.600 24.800 C 101.160 24.800,100.800 24.980,100.800 25.200 C 100.800 25.420,100.480 25.600,100.088 25.600 C 99.697 25.600,99.117 25.960,98.800 26.400 C 98.483 26.840,97.993 27.200,97.712 27.200 C 97.430 27.200,97.200 27.380,97.200 27.600 C 97.200 27.820,96.840 28.000,96.400 28.000 C 95.960 28.000,95.600 28.145,95.600 28.323 C 95.600 28.501,94.835 28.981,93.900 29.390 C 92.965 29.799,91.909 30.463,91.553 30.867 C 91.197 31.270,90.678 31.600,90.400 31.600 C 90.122 31.600,89.600 31.915,89.241 32.300 C 88.506 33.089,87.408 33.824,86.145 34.374 C 85.675 34.578,84.828 35.208,84.263 35.773 C 83.699 36.338,82.970 36.800,82.645 36.800 C 82.320 36.800,81.940 37.160,81.800 37.600 C 81.660 38.040,81.275 38.400,80.944 38.400 C 80.614 38.400,80.092 38.625,79.785 38.900 C 78.501 40.052,78.015 40.400,77.693 40.400 C 77.506 40.400,76.733 41.116,75.976 41.991 C 75.219 42.866,74.344 43.586,74.031 43.591 C 73.719 43.596,72.687 44.410,71.738 45.400 C 70.790 46.390,69.819 47.200,69.582 47.200 C 69.345 47.200,67.638 48.730,65.789 50.600 C 63.940 52.470,62.163 54.000,61.840 54.000 C 61.518 54.000,61.140 54.360,61.000 54.800 C 60.860 55.240,60.580 55.600,60.378 55.600 C 59.893 55.600,54.000 61.557,54.000 62.047 C 54.000 62.256,52.470 63.940,50.600 65.789 C 48.730 67.638,47.200 69.345,47.200 69.582 C 47.200 69.819,46.390 70.790,45.400 71.738 C 44.410 72.687,43.596 73.719,43.591 74.031 C 43.586 74.344,42.866 75.219,41.991 75.976 C 41.116 76.733,40.400 77.511,40.400 77.705 C 40.400 77.899,40.175 78.308,39.900 78.615 C 38.662 79.996,38.400 80.404,38.400 80.956 C 38.400 81.281,38.040 81.660,37.600 81.800 C 37.160 81.940,36.800 82.313,36.800 82.631 C 36.800 82.948,36.260 83.772,35.600 84.463 C 34.940 85.154,34.400 85.968,34.400 86.272 C 34.400 86.576,34.130 86.929,33.800 87.055 C 33.470 87.182,33.200 87.587,33.200 87.954 C 33.200 88.322,32.840 88.883,32.400 89.200 C 31.960 89.517,31.600 90.031,31.600 90.341 C 31.600 90.652,31.270 91.197,30.867 91.553 C 30.463 91.909,29.799 92.965,29.390 93.900 C 28.981 94.835,28.501 95.600,28.323 95.600 C 28.145 95.600,28.000 95.960,28.000 96.400 C 28.000 96.840,27.820 97.200,27.600 97.200 C 27.380 97.200,27.200 97.430,27.200 97.712 C 27.200 97.993,26.840 98.483,26.400 98.800 C 25.960 99.117,25.600 99.697,25.600 100.088 C 25.600 100.480,25.420 100.800,25.200 100.800 C 24.980 100.800,24.800 101.160,24.800 101.600 C 24.800 102.040,24.634 102.400,24.432 102.400 C 24.229 102.400,23.935 102.985,23.778 103.700 C 23.621 104.414,23.157 105.291,22.746 105.647 C 22.336 106.003,22.000 106.588,22.000 106.947 C 22.000 107.306,21.820 107.600,21.600 107.600 C 21.380 107.600,21.200 107.870,21.200 108.200 C 21.200 108.530,21.020 108.800,20.800 108.800 C 20.580 108.800,20.400 109.160,20.400 109.600 C 20.400 110.040,20.220 110.400,20.000 110.400 C 19.780 110.400,19.600 110.760,19.600 111.200 C 19.600 111.640,19.431 112.000,19.225 112.000 C 19.018 112.000,18.728 112.810,18.579 113.800 C 18.431 114.790,18.150 115.600,17.955 115.600 C 17.760 115.600,17.600 115.960,17.600 116.400 C 17.600 116.840,17.454 117.200,17.275 117.200 C 17.096 117.200,16.702 117.830,16.400 118.600 C 16.098 119.370,15.704 120.000,15.525 120.000 C 15.346 120.000,15.200 120.540,15.200 121.200 C 15.200 121.860,15.020 122.400,14.800 122.400 C 14.580 122.400,14.400 122.745,14.400 123.167 C 14.400 123.588,14.208 123.997,13.974 124.075 C 13.740 124.153,13.446 124.978,13.322 125.909 C 13.197 126.839,12.938 127.600,12.747 127.600 C 12.556 127.600,12.400 128.050,12.400 128.600 C 12.400 129.150,12.220 129.600,12.000 129.600 C 11.780 129.600,11.600 129.960,11.600 130.400 C 11.600 130.840,11.420 131.200,11.200 131.200 C 10.980 131.200,10.800 131.740,10.800 132.400 C 10.800 133.060,10.620 133.600,10.400 133.600 C 10.180 133.600,10.000 134.050,10.000 134.600 C 10.000 135.150,9.820 135.600,9.600 135.600 C 9.380 135.600,9.200 136.125,9.200 136.767 C 9.200 137.408,9.022 137.993,8.804 138.067 C 8.586 138.140,8.290 139.325,8.147 140.700 C 8.003 142.075,7.732 143.200,7.543 143.200 C 7.354 143.200,7.200 143.650,7.200 144.200 C 7.200 144.750,7.020 145.200,6.800 145.200 C 6.580 145.200,6.400 145.920,6.400 146.800 C 6.400 147.680,6.220 148.400,6.000 148.400 C 5.780 148.400,5.600 149.030,5.600 149.800 C 5.600 150.570,5.420 151.200,5.200 151.200 C 4.980 151.200,4.800 151.920,4.800 152.800 C 4.800 153.680,4.620 154.400,4.400 154.400 C 4.180 154.400,4.000 155.019,4.000 155.776 C 4.000 156.533,3.834 157.255,3.632 157.380 C 3.429 157.506,3.136 159.406,2.980 161.604 C 2.824 163.802,2.540 165.600,2.348 165.600 C 2.157 165.600,2.000 166.590,2.000 167.800 C 2.000 169.010,1.820 170.000,1.600 170.000 C 1.375 170.000,1.200 171.122,1.200 172.567 C 1.200 174.264,1.031 175.190,0.700 175.300 C 0.307 175.431,0.200 180.729,0.200 200.000 C 0.200 219.271,0.307 224.569,0.700 224.700 C 1.031 224.810,1.200 225.736,1.200 227.433 C 1.200 228.878,1.375 230.000,1.600 230.000 C 1.820 230.000,2.000 230.990,2.000 232.200 C 2.000 233.410,2.157 234.400,2.348 234.400 C 2.540 234.400,2.824 236.198,2.980 238.396 C 3.136 240.594,3.429 242.494,3.632 242.620 C 3.834 242.745,4.000 243.467,4.000 244.224 C 4.000 244.981,4.180 245.600,4.400 245.600 C 4.620 245.600,4.800 246.320,4.800 247.200 C 4.800 248.080,4.980 248.800,5.200 248.800 C 5.420 248.800,5.600 249.430,5.600 250.200 C 5.600 250.970,5.780 251.600,6.000 251.600 C 6.220 251.600,6.400 252.320,6.400 253.200 C 6.400 254.080,6.580 254.800,6.800 254.800 C 7.020 254.800,7.200 255.250,7.200 255.800 C 7.200 256.350,7.355 256.800,7.544 256.800 C 7.733 256.800,7.993 257.816,8.121 259.057 C 8.249 260.298,8.544 261.504,8.777 261.737 C 9.010 261.970,9.200 262.664,9.200 263.280 C 9.200 263.896,9.380 264.400,9.600 264.400 C 9.820 264.400,10.000 264.850,10.000 265.400 C 10.000 265.950,10.180 266.400,10.400 266.400 C 10.620 266.400,10.800 266.940,10.800 267.600 C 10.800 268.260,10.980 268.800,11.200 268.800 C 11.420 268.800,11.600 269.160,11.600 269.600 C 11.600 270.040,11.780 270.400,12.000 270.400 C 12.220 270.400,12.400 270.850,12.400 271.400 C 12.400 271.950,12.556 272.400,12.747 272.400 C 12.938 272.400,13.197 273.161,13.322 274.091 C 13.446 275.022,13.740 275.847,13.974 275.925 C 14.208 276.003,14.400 276.592,14.400 277.233 C 14.400 277.875,14.580 278.400,14.800 278.400 C 15.020 278.400,15.200 278.760,15.200 279.200 C 15.200 279.640,15.346 280.000,15.525 280.000 C 15.704 280.000,16.098 280.630,16.400 281.400 C 16.702 282.170,17.096 282.800,17.275 282.800 C 17.454 282.800,17.600 283.340,17.600 284.000 C 17.600 284.660,17.766 285.200,17.968 285.200 C 18.171 285.200,18.455 285.738,18.599 286.395 C 18.743 287.053,19.028 287.694,19.231 287.819 C 19.434 287.945,19.600 288.397,19.600 288.824 C 19.600 289.251,19.746 289.600,19.925 289.600 C 20.104 289.600,20.498 290.230,20.800 291.000 C 21.102 291.770,21.496 292.400,21.675 292.400 C 21.854 292.400,22.000 292.760,22.000 293.200 C 22.000 293.640,22.180 294.000,22.400 294.000 C 22.620 294.000,22.800 294.360,22.800 294.800 C 22.800 295.240,22.977 295.600,23.192 295.600 C 23.408 295.600,23.698 296.050,23.836 296.600 C 23.974 297.150,24.247 297.600,24.443 297.600 C 24.640 297.600,24.800 297.960,24.800 298.400 C 24.800 298.840,24.980 299.200,25.200 299.200 C 25.420 299.200,25.600 299.520,25.600 299.912 C 25.600 300.303,25.960 300.883,26.400 301.200 C 26.840 301.517,27.200 302.007,27.200 302.288 C 27.200 302.570,27.380 302.800,27.600 302.800 C 27.820 302.800,28.000 303.160,28.000 303.600 C 28.000 304.040,28.145 304.400,28.323 304.400 C 28.501 304.400,28.981 305.165,29.390 306.100 C 29.799 307.035,30.463 308.091,30.867 308.447 C 31.270 308.803,31.600 309.322,31.600 309.600 C 31.600 309.878,31.915 310.400,32.300 310.759 C 33.089 311.494,33.824 312.592,34.374 313.855 C 34.578 314.325,35.208 315.172,35.773 315.737 C 36.338 316.301,36.800 317.030,36.800 317.355 C 36.800 317.680,37.160 318.060,37.600 318.200 C 38.040 318.340,38.400 318.725,38.400 319.056 C 38.400 319.386,38.625 319.908,38.900 320.215 C 40.052 321.499,40.400 321.985,40.400 322.307 C 40.400 322.494,41.116 323.267,41.991 324.024 C 42.866 324.781,43.586 325.656,43.591 325.969 C 43.596 326.281,44.410 327.313,45.400 328.262 C 46.390 329.210,47.200 330.181,47.200 330.418 C 47.200 330.655,48.730 332.362,50.600 334.211 C 52.470 336.060,54.000 337.837,54.000 338.160 C 54.000 338.482,54.360 338.860,54.800 339.000 C 55.240 339.140,55.600 339.420,55.600 339.622 C 55.600 340.107,61.557 346.000,62.047 346.000 C 62.256 346.000,63.940 347.530,65.789 349.400 C 67.638 351.270,69.345 352.800,69.582 352.800 C 69.819 352.800,70.790 353.610,71.738 354.600 C 72.687 355.590,73.719 356.404,74.031 356.409 C 74.344 356.414,75.219 357.134,75.976 358.009 C 76.733 358.884,77.511 359.600,77.705 359.600 C 77.899 359.600,78.308 359.825,78.615 360.100 C 79.996 361.338,80.404 361.600,80.956 361.600 C 81.281 361.600,81.660 361.960,81.800 362.400 C 81.940 362.840,82.313 363.200,82.631 363.200 C 82.948 363.200,83.772 363.740,84.463 364.400 C 85.154 365.060,85.968 365.600,86.272 365.600 C 86.576 365.600,86.929 365.870,87.055 366.200 C 87.182 366.530,87.587 366.800,87.954 366.800 C 88.322 366.800,88.883 367.160,89.200 367.600 C 89.517 368.040,90.031 368.400,90.341 368.400 C 90.652 368.400,91.197 368.730,91.553 369.133 C 91.909 369.537,92.965 370.201,93.900 370.610 C 94.835 371.019,95.600 371.499,95.600 371.677 C 95.600 371.855,95.960 372.000,96.400 372.000 C 96.840 372.000,97.200 372.180,97.200 372.400 C 97.200 372.620,97.430 372.800,97.712 372.800 C 97.993 372.800,98.483 373.160,98.800 373.600 C 99.117 374.040,99.697 374.400,100.088 374.400 C 100.480 374.400,100.800 374.580,100.800 374.800 C 100.800 375.020,101.160 375.200,101.600 375.200 C 102.040 375.200,102.400 375.366,102.400 375.568 C 102.400 375.771,102.985 376.065,103.700 376.222 C 104.414 376.379,105.291 376.843,105.647 377.254 C 106.003 377.664,106.588 378.000,106.947 378.000 C 107.306 378.000,107.600 378.180,107.600 378.400 C 107.600 378.620,107.870 378.800,108.200 378.800 C 108.530 378.800,108.800 378.980,108.800 379.200 C 108.800 379.420,109.160 379.600,109.600 379.600 C 110.040 379.600,110.400 379.780,110.400 380.000 C 110.400 380.220,110.760 380.400,111.200 380.400 C 111.640 380.400,112.000 380.569,112.000 380.775 C 112.000 380.982,112.810 381.272,113.800 381.421 C 114.790 381.569,115.600 381.850,115.600 382.045 C 115.600 382.240,115.960 382.400,116.400 382.400 C 116.840 382.400,117.200 382.546,117.200 382.725 C 117.200 382.904,117.830 383.298,118.600 383.600 C 119.370 383.902,120.000 384.296,120.000 384.475 C 120.000 384.654,120.540 384.800,121.200 384.800 C 121.860 384.800,122.400 384.980,122.400 385.200 C 122.400 385.420,122.745 385.600,123.167 385.600 C 123.588 385.600,123.997 385.792,124.075 386.026 C 124.153 386.260,124.978 386.554,125.909 386.678 C 126.839 386.803,127.600 387.062,127.600 387.253 C 127.600 387.444,128.050 387.600,128.600 387.600 C 129.150 387.600,129.600 387.780,129.600 388.000 C 129.600 388.220,129.960 388.400,130.400 388.400 C 130.840 388.400,131.200 388.580,131.200 388.800 C 131.200 389.020,131.740 389.200,132.400 389.200 C 133.060 389.200,133.600 389.380,133.600 389.600 C 133.600 389.820,134.050 390.000,134.600 390.000 C 135.150 390.000,135.600 390.180,135.600 390.400 C 135.600 390.620,136.125 390.800,136.767 390.800 C 137.408 390.800,137.993 390.978,138.067 391.196 C 138.140 391.414,139.325 391.710,140.700 391.853 C 142.075 391.997,143.200 392.268,143.200 392.457 C 143.200 392.646,143.650 392.800,144.200 392.800 C 144.750 392.800,145.200 392.980,145.200 393.200 C 145.200 393.420,145.920 393.600,146.800 393.600 C 147.680 393.600,148.400 393.780,148.400 394.000 C 148.400 394.220,149.030 394.400,149.800 394.400 C 150.570 394.400,151.200 394.580,151.200 394.800 C 151.200 395.020,151.920 395.200,152.800 395.200 C 153.680 395.200,154.400 395.380,154.400 395.600 C 154.400 395.820,155.019 396.000,155.776 396.000 C 156.533 396.000,157.255 396.166,157.380 396.368 C 157.506 396.571,159.406 396.864,161.604 397.020 C 163.802 397.176,165.600 397.460,165.600 397.652 C 165.600 397.843,166.590 398.000,167.800 398.000 C 169.010 398.000,170.000 398.180,170.000 398.400 C 170.000 398.625,171.122 398.800,172.567 398.800 C 174.264 398.800,175.190 398.969,175.300 399.300 C 175.431 399.693,180.729 399.800,200.000 399.800 C 219.271 399.800,224.569 399.693,224.700 399.300 C 224.810 398.969,225.736 398.800,227.433 398.800 C 228.878 398.800,230.000 398.625,230.000 398.400 C 230.000 398.180,230.990 398.000,232.200 398.000 C 233.410 398.000,234.400 397.843,234.400 397.652 C 234.400 397.460,236.198 397.176,238.396 397.020 C 240.594 396.864,242.494 396.571,242.620 396.368 C 242.745 396.166,243.467 396.000,244.224 396.000 C 244.981 396.000,245.600 395.820,245.600 395.600 C 245.600 395.380,246.320 395.200,247.200 395.200 C 248.080 395.200,248.800 395.020,248.800 394.800 C 248.800 394.580,249.430 394.400,250.200 394.400 C 250.970 394.400,251.600 394.220,251.600 394.000 C 251.600 393.780,252.320 393.600,253.200 393.600 C 254.080 393.600,254.800 393.420,254.800 393.200 C 254.800 392.980,255.250 392.800,255.800 392.800 C 256.350 392.800,256.800 392.645,256.800 392.456 C 256.800 392.267,257.816 392.007,259.057 391.879 C 260.298 391.751,261.504 391.456,261.737 391.223 C 261.970 390.990,262.664 390.800,263.280 390.800 C 263.896 390.800,264.400 390.620,264.400 390.400 C 264.400 390.180,264.850 390.000,265.400 390.000 C 265.950 390.000,266.400 389.820,266.400 389.600 C 266.400 389.380,266.940 389.200,267.600 389.200 C 268.260 389.200,268.800 389.020,268.800 388.800 C 268.800 388.580,269.160 388.400,269.600 388.400 C 270.040 388.400,270.400 388.220,270.400 388.000 C 270.400 387.780,270.850 387.600,271.400 387.600 C 271.950 387.600,272.400 387.444,272.400 387.253 C 272.400 387.062,273.161 386.803,274.091 386.678 C 275.022 386.554,275.847 386.260,275.925 386.026 C 276.003 385.792,276.592 385.600,277.233 385.600 C 277.875 385.600,278.400 385.420,278.400 385.200 C 278.400 384.980,278.760 384.800,279.200 384.800 C 279.640 384.800,280.000 384.654,280.000 384.475 C 280.000 384.296,280.630 383.902,281.400 383.600 C 282.170 383.298,282.800 382.904,282.800 382.725 C 282.800 382.546,283.340 382.400,284.000 382.400 C 284.660 382.400,285.200 382.234,285.200 382.032 C 285.200 381.829,285.738 381.545,286.395 381.401 C 287.053 381.257,287.694 380.972,287.819 380.769 C 287.945 380.566,288.397 380.400,288.824 380.400 C 289.251 380.400,289.600 380.254,289.600 380.075 C 289.600 379.896,290.230 379.502,291.000 379.200 C 291.770 378.898,292.400 378.504,292.400 378.325 C 292.400 378.146,292.760 378.000,293.200 378.000 C 293.640 378.000,294.000 377.820,294.000 377.600 C 294.000 377.380,294.360 377.200,294.800 377.200 C 295.240 377.200,295.600 377.023,295.600 376.808 C 295.600 376.592,296.050 376.302,296.600 376.164 C 297.150 376.026,297.600 375.753,297.600 375.557 C 297.600 375.360,297.960 375.200,298.400 375.200 C 298.840 375.200,299.200 375.020,299.200 374.800 C 299.200 374.580,299.520 374.400,299.912 374.400 C 300.303 374.400,300.883 374.040,301.200 373.600 C 301.517 373.160,302.007 372.800,302.288 372.800 C 302.570 372.800,302.800 372.620,302.800 372.400 C 302.800 372.180,303.160 372.000,303.600 372.000 C 304.040 372.000,304.400 371.855,304.400 371.677 C 304.400 371.499,305.165 371.019,306.100 370.610 C 307.035 370.201,308.091 369.537,308.447 369.133 C 308.803 368.730,309.322 368.400,309.600 368.400 C 309.878 368.400,310.400 368.085,310.759 367.700 C 311.494 366.911,312.592 366.176,313.855 365.626 C 314.325 365.422,315.172 364.792,315.737 364.227 C 316.301 363.662,317.030 363.200,317.355 363.200 C 317.680 363.200,318.060 362.840,318.200 362.400 C 318.340 361.960,318.725 361.600,319.056 361.600 C 319.386 361.600,319.908 361.375,320.215 361.100 C 321.499 359.948,321.985 359.600,322.307 359.600 C 322.494 359.600,323.267 358.884,324.024 358.009 C 324.781 357.134,325.656 356.414,325.969 356.409 C 326.281 356.404,327.313 355.590,328.262 354.600 C 329.210 353.610,330.181 352.800,330.418 352.800 C 330.655 352.800,332.362 351.270,334.211 349.400 C 336.060 347.530,337.837 346.000,338.160 346.000 C 338.482 346.000,338.860 345.640,339.000 345.200 C 339.140 344.760,339.420 344.400,339.622 344.400 C 340.107 344.400,346.000 338.443,346.000 337.953 C 346.000 337.744,347.530 336.060,349.400 334.211 C 351.270 332.362,352.800 330.655,352.800 330.418 C 352.800 330.181,353.610 329.210,354.600 328.262 C 355.590 327.313,356.404 326.281,356.409 325.969 C 356.414 325.656,357.134 324.781,358.009 324.024 C 358.884 323.267,359.600 322.489,359.600 322.295 C 359.600 322.101,359.825 321.692,360.100 321.385 C 361.338 320.004,361.600 319.596,361.600 319.044 C 361.600 318.719,361.960 318.340,362.400 318.200 C 362.840 318.060,363.200 317.687,363.200 317.369 C 363.200 317.052,363.740 316.228,364.400 315.537 C 365.060 314.846,365.600 314.032,365.600 313.728 C 365.600 313.424,365.870 313.071,366.200 312.945 C 366.530 312.818,366.800 312.413,366.800 312.046 C 366.800 311.678,367.160 311.117,367.600 310.800 C 368.040 310.483,368.400 309.969,368.400 309.659 C 368.400 309.348,368.730 308.803,369.133 308.447 C 369.537 308.091,370.201 307.035,370.610 306.100 C 371.019 305.165,371.499 304.400,371.677 304.400 C 371.855 304.400,372.000 304.040,372.000 303.600 C 372.000 303.160,372.180 302.800,372.400 302.800 C 372.620 302.800,372.800 302.570,372.800 302.288 C 372.800 302.007,373.160 301.517,373.600 301.200 C 374.040 300.883,374.400 300.303,374.400 299.912 C 374.400 299.520,374.580 299.200,374.800 299.200 C 375.020 299.200,375.200 298.840,375.200 298.400 C 375.200 297.960,375.366 297.600,375.568 297.600 C 375.771 297.600,376.065 297.015,376.222 296.300 C 376.379 295.586,376.843 294.709,377.254 294.353 C 377.664 293.997,378.000 293.412,378.000 293.053 C 378.000 292.694,378.180 292.400,378.400 292.400 C 378.620 292.400,378.800 292.130,378.800 291.800 C 378.800 291.470,378.980 291.200,379.200 291.200 C 379.420 291.200,379.600 290.840,379.600 290.400 C 379.600 289.960,379.780 289.600,380.000 289.600 C 380.220 289.600,380.400 289.240,380.400 288.800 C 380.400 288.360,380.569 288.000,380.775 288.000 C 380.982 288.000,381.272 287.190,381.421 286.200 C 381.569 285.210,381.850 284.400,382.045 284.400 C 382.240 284.400,382.400 284.040,382.400 283.600 C 382.400 283.160,382.546 282.800,382.725 282.800 C 382.904 282.800,383.298 282.170,383.600 281.400 C 383.902 280.630,384.296 280.000,384.475 280.000 C 384.654 280.000,384.800 279.460,384.800 278.800 C 384.800 278.140,384.980 277.600,385.200 277.600 C 385.420 277.600,385.600 277.255,385.600 276.833 C 385.600 276.412,385.792 276.003,386.026 275.925 C 386.260 275.847,386.554 275.022,386.678 274.091 C 386.803 273.161,387.062 272.400,387.253 272.400 C 387.444 272.400,387.600 271.950,387.600 271.400 C 387.600 270.850,387.780 270.400,388.000 270.400 C 388.220 270.400,388.400 270.040,388.400 269.600 C 388.400 269.160,388.580 268.800,388.800 268.800 C 389.020 268.800,389.200 268.260,389.200 267.600 C 389.200 266.940,389.380 266.400,389.600 266.400 C 389.820 266.400,390.000 265.950,390.000 265.400 C 390.000 264.850,390.180 264.400,390.400 264.400 C 390.620 264.400,390.800 263.875,390.800 263.233 C 390.800 262.592,390.978 262.007,391.196 261.933 C 391.414 261.860,391.710 260.675,391.853 259.300 C 391.997 257.925,392.268 256.800,392.457 256.800 C 392.646 256.800,392.800 256.350,392.800 255.800 C 392.800 255.250,392.980 254.800,393.200 254.800 C 393.420 254.800,393.600 254.080,393.600 253.200 C 393.600 252.320,393.780 251.600,394.000 251.600 C 394.220 251.600,394.400 250.970,394.400 250.200 C 394.400 249.430,394.580 248.800,394.800 248.800 C 395.020 248.800,395.200 248.080,395.200 247.200 C 395.200 246.320,395.380 245.600,395.600 245.600 C 395.820 245.600,396.000 244.981,396.000 244.224 C 396.000 243.467,396.166 242.745,396.368 242.620 C 396.571 242.494,396.864 240.594,397.020 238.396 C 397.176 236.198,397.460 234.400,397.652 234.400 C 397.843 234.400,398.000 233.410,398.000 232.200 C 398.000 230.990,398.180 230.000,398.400 230.000 C 398.625 230.000,398.800 228.878,398.800 227.433 C 398.800 225.736,398.969 224.810,399.300 224.700 C 399.693 224.569,399.800 219.271,399.800 200.000 C 399.800 180.729,399.693 175.431,399.300 175.300 C 398.969 175.190,398.800 174.264,398.800 172.567 C 398.800 171.122,398.625 170.000,398.400 170.000 C 398.180 170.000,398.000 169.010,398.000 167.800 C 398.000 166.590,397.843 165.600,397.652 165.600 C 397.460 165.600,397.176 163.802,397.020 161.604 C 396.864 159.406,396.571 157.506,396.368 157.380 C 396.166 157.255,396.000 156.533,396.000 155.776 C 396.000 155.019,395.820 154.400,395.600 154.400 C 395.380 154.400,395.200 153.680,395.200 152.800 C 395.200 151.920,395.020 151.200,394.800 151.200 C 394.580 151.200,394.400 150.570,394.400 149.800 C 394.400 149.030,394.220 148.400,394.000 148.400 C 393.780 148.400,393.600 147.680,393.600 146.800 C 393.600 145.920,393.420 145.200,393.200 145.200 C 392.980 145.200,392.800 144.750,392.800 144.200 C 392.800 143.650,392.645 143.200,392.456 143.200 C 392.267 143.200,392.007 142.184,391.879 140.943 C 391.751 139.702,391.456 138.496,391.223 138.263 C 390.990 138.030,390.800 137.336,390.800 136.720 C 390.800 136.104,390.620 135.600,390.400 135.600 C 390.180 135.600,390.000 135.150,390.000 134.600 C 390.000 134.050,389.820 133.600,389.600 133.600 C 389.380 133.600,389.200 133.060,389.200 132.400 C 389.200 131.740,389.020 131.200,388.800 131.200 C 388.580 131.200,388.400 130.840,388.400 130.400 C 388.400 129.960,388.220 129.600,388.000 129.600 C 387.780 129.600,387.600 129.150,387.600 128.600 C 387.600 128.050,387.444 127.600,387.253 127.600 C 387.062 127.600,386.803 126.839,386.678 125.909 C 386.554 124.978,386.260 124.153,386.026 124.075 C 385.792 123.997,385.600 123.408,385.600 122.767 C 385.600 122.125,385.420 121.600,385.200 121.600 C 384.980 121.600,384.800 121.240,384.800 120.800 C 384.800 120.360,384.654 120.000,384.475 120.000 C 384.296 120.000,383.902 119.370,383.600 118.600 C 383.298 117.830,382.904 117.200,382.725 117.200 C 382.546 117.200,382.400 116.660,382.400 116.000 C 382.400 115.340,382.234 114.800,382.032 114.800 C 381.829 114.800,381.545 114.262,381.401 113.605 C 381.257 112.947,380.972 112.306,380.769 112.181 C 380.566 112.055,380.400 111.603,380.400 111.176 C 380.400 110.749,380.254 110.400,380.075 110.400 C 379.896 110.400,379.502 109.770,379.200 109.000 C 378.898 108.230,378.504 107.600,378.325 107.600 C 378.146 107.600,378.000 107.240,378.000 106.800 C 378.000 106.360,377.820 106.000,377.600 106.000 C 377.380 106.000,377.200 105.640,377.200 105.200 C 377.200 104.760,377.023 104.400,376.808 104.400 C 376.592 104.400,376.302 103.950,376.164 103.400 C 376.026 102.850,375.753 102.400,375.557 102.400 C 375.360 102.400,375.200 102.040,375.200 101.600 C 375.200 101.160,375.020 100.800,374.800 100.800 C 374.580 100.800,374.400 100.480,374.400 100.088 C 374.400 99.697,374.040 99.117,373.600 98.800 C 373.160 98.483,372.800 97.993,372.800 97.712 C 372.800 97.430,372.620 97.200,372.400 97.200 C 372.180 97.200,372.000 96.840,372.000 96.400 C 372.000 95.960,371.855 95.600,371.677 95.600 C 371.499 95.600,371.019 94.835,370.610 93.900 C 370.201 92.965,369.537 91.909,369.133 91.553 C 368.730 91.197,368.400 90.678,368.400 90.400 C 368.400 90.122,368.085 89.600,367.700 89.241 C 366.911 88.506,366.176 87.408,365.626 86.145 C 365.422 85.675,364.792 84.828,364.227 84.263 C 363.662 83.699,363.200 82.970,363.200 82.645 C 363.200 82.320,362.840 81.940,362.400 81.800 C 361.960 81.660,361.600 81.275,361.600 80.944 C 361.600 80.614,361.375 80.092,361.100 79.785 C 359.948 78.501,359.600 78.015,359.600 77.693 C 359.600 77.506,358.884 76.733,358.009 75.976 C 357.134 75.219,356.414 74.344,356.409 74.031 C 356.404 73.719,355.590 72.687,354.600 71.738 C 353.610 70.790,352.800 69.819,352.800 69.582 C 352.800 69.345,351.270 67.638,349.400 65.789 C 347.530 63.940,346.000 62.163,346.000 61.840 C 346.000 61.518,345.640 61.140,345.200 61.000 C 344.760 60.860,344.400 60.580,344.400 60.378 C 344.400 59.893,338.443 54.000,337.953 54.000 C 337.744 54.000,336.060 52.470,334.211 50.600 C 332.362 48.730,330.655 47.200,330.418 47.200 C 330.181 47.200,329.210 46.390,328.262 45.400 C 327.313 44.410,326.281 43.596,325.969 43.591 C 325.656 43.586,324.781 42.866,324.024 41.991 C 323.267 41.116,322.489 40.400,322.295 40.400 C 322.101 40.400,321.692 40.175,321.385 39.900 C 320.004 38.662,319.596 38.400,319.044 38.400 C 318.719 38.400,318.340 38.040,318.200 37.600 C 318.060 37.160,317.687 36.800,317.369 36.800 C 317.052 36.800,316.228 36.260,315.537 35.600 C 314.846 34.940,314.032 34.400,313.728 34.400 C 313.424 34.400,313.071 34.130,312.945 33.800 C 312.818 33.470,312.413 33.200,312.046 33.200 C 311.678 33.200,311.117 32.840,310.800 32.400 C 310.483 31.960,309.969 31.600,309.659 31.600 C 309.348 31.600,308.803 31.270,308.447 30.867 C 308.091 30.463,307.035 29.799,306.100 29.390 C 305.165 28.981,304.400 28.501,304.400 28.323 C 304.400 28.145,304.040 28.000,303.600 28.000 C 303.160 28.000,302.800 27.820,302.800 27.600 C 302.800 27.380,302.570 27.200,302.288 27.200 C 302.007 27.200,301.517 26.840,301.200 26.400 C 300.883 25.960,300.303 25.600,299.912 25.600 C 299.520 25.600,299.200 25.420,299.200 25.200 C 299.200 24.980,298.840 24.800,298.400 24.800 C 297.960 24.800,297.600 24.634,297.600 24.432 C 297.600 24.229,297.015 23.935,296.300 23.778 C 295.586 23.621,294.709 23.157,294.353 22.746 C 293.997 22.336,293.412 22.000,293.053 22.000 C 292.694 22.000,292.400 21.820,292.400 21.600 C 292.400 21.380,292.130 21.200,291.800 21.200 C 291.470 21.200,291.200 21.020,291.200 20.800 C 291.200 20.580,290.840 20.400,290.400 20.400 C 289.960 20.400,289.600 20.220,289.600 20.000 C 289.600 19.780,289.240 19.600,288.800 19.600 C 288.360 19.600,288.000 19.431,288.000 19.225 C 288.000 19.018,287.190 18.728,286.200 18.579 C 285.210 18.431,284.400 18.150,284.400 17.955 C 284.400 17.760,284.040 17.600,283.600 17.600 C 283.160 17.600,282.800 17.454,282.800 17.275 C 282.800 17.096,282.170 16.702,281.400 16.400 C 280.630 16.098,280.000 15.704,280.000 15.525 C 280.000 15.346,279.460 15.200,278.800 15.200 C 278.140 15.200,277.600 15.020,277.600 14.800 C 277.600 14.580,277.255 14.400,276.833 14.400 C 276.412 14.400,276.003 14.208,275.925 13.974 C 275.847 13.740,275.022 13.446,274.091 13.322 C 273.161 13.197,272.400 12.938,272.400 12.747 C 272.400 12.556,271.950 12.400,271.400 12.400 C 270.850 12.400,270.400 12.220,270.400 12.000 C 270.400 11.780,270.040 11.600,269.600 11.600 C 269.160 11.600,268.800 11.420,268.800 11.200 C 268.800 10.980,268.260 10.800,267.600 10.800 C 266.940 10.800,266.400 10.620,266.400 10.400 C 266.400 10.180,265.950 10.000,265.400 10.000 C 264.850 10.000,264.400 9.820,264.400 9.600 C 264.400 9.380,263.875 9.200,263.233 9.200 C 262.592 9.200,262.007 9.022,261.933 8.804 C 261.860 8.586,260.675 8.290,259.300 8.147 C 257.925 8.003,256.800 7.732,256.800 7.543 C 256.800 7.354,256.350 7.200,255.800 7.200 C 255.250 7.200,254.800 7.020,254.800 6.800 C 254.800 6.580,254.080 6.400,253.200 6.400 C 252.320 6.400,251.600 6.220,251.600 6.000 C 251.600 5.780,250.970 5.600,250.200 5.600 C 249.430 5.600,248.800 5.420,248.800 5.200 C 248.800 4.980,248.080 4.800,247.200 4.800 C 246.320 4.800,245.600 4.620,245.600 4.400 C 245.600 4.180,244.981 4.000,244.224 4.000 C 243.467 4.000,242.745 3.834,242.620 3.632 C 242.494 3.429,240.594 3.136,238.396 2.980 C 236.198 2.824,234.400 2.540,234.400 2.348 C 234.400 2.157,233.410 2.000,232.200 2.000 C 230.990 2.000,230.000 1.820,230.000 1.600 C 230.000 1.375,228.878 1.200,227.433 1.200 C 225.780 1.200,224.809 1.028,224.705 0.716 C 224.545 0.236,188.130 -0.115,178.900 0.274 M205.501 95.209 C 209.024 95.571,211.055 95.939,216.400 97.185 C 220.892 98.232,228.732 101.436,232.829 103.900 C 233.835 104.505,235.410 105.438,236.329 105.974 C 237.248 106.509,238.000 107.094,238.000 107.274 C 238.000 107.453,238.191 107.600,238.423 107.600 C 239.588 107.600,248.263 115.413,252.200 120.007 C 258.717 127.612,264.486 138.889,266.727 148.400 C 267.855 153.189,268.037 154.338,268.421 159.094 C 268.680 162.297,268.790 179.704,268.717 205.800 L 268.600 247.400 264.400 247.522 C 253.393 247.843,245.352 242.545,241.337 232.329 C 240.722 230.766,240.632 227.154,240.395 194.800 C 240.198 167.895,240.009 158.602,239.633 157.400 C 239.357 156.520,238.944 155.080,238.714 154.200 C 234.761 139.068,222.887 128.027,206.294 124.056 C 203.837 123.468,192.583 123.465,190.106 124.051 C 181.518 126.084,174.301 129.825,168.857 135.066 C 166.920 136.931,162.707 140.000,162.083 140.000 C 161.885 140.000,161.183 140.269,160.523 140.599 C 153.538 144.083,143.565 141.698,136.295 134.806 C 131.903 130.642,131.467 131.839,140.670 122.786 C 153.247 110.414,156.603 107.735,166.100 102.481 C 167.693 101.600,174.015 99.026,176.200 98.370 C 177.080 98.105,178.160 97.748,178.600 97.575 C 179.040 97.402,179.850 97.170,180.400 97.059 C 180.950 96.949,182.714 96.566,184.320 96.209 C 190.304 94.876,198.494 94.490,205.501 95.209 M152.908 152.040 C 161.757 153.826,165.870 155.141,172.281 158.232 C 191.877 167.681,206.807 186.583,210.802 207.000 C 211.061 208.320,211.471 210.300,211.715 211.400 C 211.994 212.659,212.166 219.033,212.179 228.600 L 212.200 243.800 207.942 243.913 C 203.122 244.041,198.924 243.157,195.403 241.272 C 193.085 240.032,187.200 234.423,187.200 233.455 C 187.200 233.095,187.064 232.800,186.898 232.800 C 186.731 232.800,186.356 232.215,186.064 231.500 C 185.772 230.785,185.371 229.840,185.173 229.400 C 184.508 227.918,184.073 225.026,183.821 220.400 C 183.684 217.870,183.386 214.990,183.160 214.000 C 182.426 210.784,181.929 209.014,181.561 208.305 C 181.362 207.923,181.200 207.414,181.200 207.174 C 181.200 205.107,176.245 197.123,172.495 193.147 C 168.234 188.631,158.877 182.400,156.355 182.400 C 156.154 182.400,155.677 182.238,155.295 182.039 C 154.632 181.694,153.660 181.415,149.588 180.398 C 146.450 179.614,131.161 180.293,130.574 181.242 C 130.452 181.439,130.021 181.600,129.616 181.600 C 126.854 181.600,117.016 187.204,112.992 191.070 C 109.268 194.647,103.600 202.440,103.600 203.981 C 103.600 204.198,103.275 204.966,102.878 205.688 C 99.909 211.085,98.687 226.298,100.785 231.740 C 100.968 232.213,101.348 233.410,101.631 234.400 C 104.963 246.073,114.859 256.702,126.600 261.220 C 133.261 263.782,131.960 263.702,171.000 263.975 C 198.830 264.170,206.906 264.338,208.000 264.747 C 218.585 268.699,223.681 276.021,223.765 287.400 L 223.800 292.200 178.400 292.182 C 145.698 292.170,132.329 292.035,130.600 291.701 C 124.681 290.558,122.416 289.982,118.400 288.597 C 114.750 287.339,104.000 282.097,104.000 281.575 C 104.000 281.369,103.775 281.193,103.500 281.184 C 103.007 281.167,102.189 280.601,97.954 277.343 C 94.729 274.862,88.723 268.845,85.999 265.367 C 84.129 262.979,82.400 260.439,82.400 260.080 C 82.400 259.853,82.265 259.607,82.100 259.533 C 81.537 259.283,77.391 251.295,75.959 247.700 C 75.761 247.205,75.429 246.395,75.219 245.900 C 74.579 244.389,73.164 239.517,72.751 237.400 C 71.576 231.389,71.420 229.551,71.431 221.800 C 71.480 185.292,98.790 154.837,134.400 151.580 C 138.649 151.191,150.115 151.476,152.908 152.040 M305.814 204.300 C 305.979 204.685,306.275 205.900,306.473 207.000 C 306.670 208.100,306.999 209.900,307.205 211.000 C 307.410 212.100,307.693 213.677,307.833 214.504 C 307.974 215.331,308.249 216.106,308.444 216.227 C 308.640 216.348,308.800 216.709,308.800 217.028 C 308.800 219.646,311.999 222.916,315.600 223.977 C 319.656 225.173,323.458 225.998,324.931 226.002 C 328.269 226.011,330.482 228.424,327.700 229.021 C 326.584 229.261,324.927 229.589,320.600 230.426 C 311.970 232.097,309.342 234.296,307.964 241.000 C 307.258 244.434,306.786 246.884,306.455 248.831 C 305.759 252.926,303.792 252.858,303.115 248.716 C 300.950 235.479,299.683 233.233,293.400 231.495 C 291.100 230.858,289.939 230.605,284.600 229.576 C 281.303 228.940,281.215 228.906,280.926 228.151 C 280.523 227.100,281.683 226.560,285.906 225.830 C 289.829 225.152,290.711 224.950,294.000 223.974 C 299.535 222.333,301.334 219.061,303.002 207.600 C 303.524 204.012,304.966 202.320,305.814 204.300 M231.919 252.652 C 233.174 253.450,234.260 254.260,234.333 254.452 C 234.407 254.643,234.707 254.800,235.000 254.800 C 235.293 254.800,235.593 254.953,235.667 255.140 C 235.908 255.755,245.017 261.482,248.154 262.991 C 250.866 264.295,251.596 264.472,254.315 264.486 C 257.393 264.501,257.934 264.348,262.799 262.095 C 264.221 261.436,269.291 258.143,275.775 253.668 C 279.731 250.937,280.091 250.824,280.947 252.046 C 281.729 253.163,281.629 253.379,277.633 259.194 C 268.719 272.163,266.833 277.004,268.745 282.000 C 270.595 286.834,271.060 287.644,276.685 295.828 C 281.928 303.454,282.488 305.200,279.689 305.200 C 279.032 305.200,274.317 302.110,274.067 301.517 C 273.993 301.343,273.787 301.200,273.608 301.200 C 273.429 301.200,271.563 300.026,269.462 298.591 C 261.025 292.830,255.770 290.861,252.028 292.056 C 249.643 292.819,242.417 296.383,241.600 297.200 C 241.490 297.310,241.102 297.580,240.737 297.800 C 240.372 298.020,238.623 299.235,236.850 300.500 C 235.076 301.765,233.440 302.800,233.213 302.800 C 232.986 302.800,232.800 302.947,232.800 303.126 C 232.800 303.572,229.847 305.200,229.037 305.200 C 226.641 305.200,227.283 303.483,232.664 295.501 C 237.310 288.609,238.826 285.998,240.343 282.281 C 240.882 280.961,240.955 275.493,240.447 274.495 C 240.252 274.113,239.871 273.260,239.600 272.600 C 238.425 269.742,236.469 266.432,233.188 261.751 C 231.545 259.406,230.020 257.207,229.800 256.865 C 229.580 256.523,229.094 255.895,228.720 255.468 C 227.617 254.209,227.397 252.440,228.262 251.785 C 229.289 251.006,229.361 251.024,231.919 252.652 " stroke="none" fill="#fbfbfb" fill-rule="evenodd"></path><path id="path3" d="M135.907 151.890 C 136.626 151.979,137.706 151.977,138.307 151.886 C 138.908 151.795,138.320 151.722,137.000 151.724 C 135.680 151.726,135.188 151.801,135.907 151.890 M145.900 151.882 C 146.395 151.978,147.205 151.978,147.700 151.882 C 148.195 151.787,147.790 151.709,146.800 151.709 C 145.810 151.709,145.405 151.787,145.900 151.882 M117.000 155.885 C 115.775 156.180,115.398 156.728,116.576 156.503 C 117.146 156.394,117.710 156.146,117.830 155.952 C 117.949 155.759,117.992 155.621,117.924 155.646 C 117.856 155.672,117.440 155.779,117.000 155.885 M106.000 161.188 C 104.130 162.281,102.060 163.637,101.400 164.200 C 100.740 164.763,101.730 164.264,103.600 163.091 C 105.470 161.917,107.675 160.644,108.500 160.260 C 109.917 159.601,110.372 159.200,109.700 159.200 C 109.535 159.200,107.870 160.095,106.000 161.188 M97.000 167.542 C 93.652 170.328,87.125 177.111,85.275 179.726 C 83.187 182.680,84.121 181.910,86.563 178.666 C 88.973 175.464,96.734 167.757,98.743 166.570 C 99.434 166.162,100.000 165.686,100.000 165.514 C 100.000 165.044,100.011 165.037,97.000 167.542 M135.400 179.595 C 134.520 179.750,135.960 179.790,138.600 179.683 C 141.240 179.576,143.475 179.424,143.567 179.345 C 143.857 179.093,137.070 179.301,135.400 179.595 M144.500 179.476 C 144.885 179.576,145.515 179.576,145.900 179.476 C 146.285 179.375,145.970 179.293,145.200 179.293 C 144.430 179.293,144.115 179.375,144.500 179.476 M147.300 179.876 C 147.685 179.976,148.315 179.976,148.700 179.876 C 149.085 179.775,148.770 179.693,148.000 179.693 C 147.230 179.693,146.915 179.775,147.300 179.876 M131.280 180.395 C 130.554 180.567,129.847 180.820,129.709 180.958 C 129.412 181.255,131.854 180.815,133.000 180.365 C 134.020 179.964,133.024 179.982,131.280 180.395 M151.633 180.544 C 151.725 180.623,152.340 180.808,153.000 180.956 C 153.876 181.152,154.038 181.115,153.600 180.818 C 153.060 180.453,151.232 180.198,151.633 180.544 M82.771 183.100 C 82.461 183.705,81.621 185.136,80.904 186.281 C 80.187 187.425,79.604 188.505,79.609 188.681 C 79.620 189.067,81.178 187.123,81.191 186.708 C 81.196 186.547,81.836 185.422,82.612 184.208 C 83.389 182.993,83.869 182.000,83.680 182.000 C 83.490 182.000,83.081 182.495,82.771 183.100 M124.400 182.800 C 122.565 183.805,123.050 183.810,125.256 182.809 C 126.215 182.374,126.730 182.021,126.400 182.026 C 126.070 182.030,125.170 182.378,124.400 182.800 M118.745 185.916 C 112.183 190.255,107.060 195.867,103.882 202.200 C 101.757 206.432,100.094 211.028,100.529 211.463 C 100.657 211.590,100.875 211.178,101.014 210.547 C 103.208 200.574,110.611 191.356,122.234 184.124 C 122.655 183.861,122.820 183.644,122.600 183.639 C 122.380 183.635,120.645 184.660,118.745 185.916 M77.649 192.493 C 75.671 196.834,74.942 199.006,75.600 198.600 C 75.820 198.464,76.000 198.082,76.000 197.750 C 76.000 197.419,76.631 195.781,77.403 194.110 C 78.175 192.440,78.728 190.994,78.631 190.898 C 78.534 190.801,78.092 191.519,77.649 192.493 M73.829 202.629 C 73.681 203.215,73.651 203.784,73.761 203.894 C 73.871 204.004,74.081 203.615,74.229 203.029 C 74.376 202.442,74.406 201.873,74.296 201.763 C 74.186 201.653,73.976 202.042,73.829 202.629 M303.866 204.700 C 303.562 205.305,303.177 206.700,303.011 207.800 C 301.826 215.658,300.658 219.341,298.653 221.533 C 297.732 222.541,294.009 224.396,292.888 224.406 C 292.510 224.409,291.930 224.600,291.600 224.830 C 290.685 225.468,293.408 224.854,295.530 223.944 C 300.195 221.945,301.334 219.786,303.189 209.434 C 304.209 203.745,305.070 202.861,305.947 206.607 C 306.261 207.949,306.326 208.024,306.360 207.080 C 306.454 204.444,304.794 202.859,303.866 204.700 M73.049 205.415 C 72.912 205.773,72.816 206.456,72.836 206.933 C 72.862 207.547,72.985 207.408,73.259 206.456 C 73.657 205.072,73.494 204.258,73.049 205.415 M72.249 209.015 C 72.112 209.373,72.021 210.416,72.047 211.333 C 72.093 212.984,72.097 212.979,72.452 210.839 C 72.812 208.670,72.715 207.801,72.249 209.015 M306.643 210.400 C 307.296 215.909,309.441 221.219,311.586 222.638 C 313.231 223.727,317.206 225.222,318.290 225.159 C 318.681 225.137,318.370 224.938,317.600 224.719 C 311.025 222.841,309.342 221.001,307.799 214.000 C 306.808 209.502,306.378 208.162,306.643 210.400 M99.889 213.200 C 99.736 213.750,99.625 214.650,99.642 215.200 C 99.668 216.061,99.726 216.014,100.058 214.860 C 100.270 214.124,100.381 213.224,100.306 212.860 C 100.208 212.394,100.086 212.493,99.889 213.200 M71.457 214.700 C 71.056 217.123,71.164 227.002,71.625 230.123 C 71.859 231.705,72.140 233.603,72.251 234.341 C 72.361 235.078,72.539 235.594,72.646 235.487 C 72.753 235.380,72.541 233.157,72.175 230.546 C 71.689 227.075,71.562 224.108,71.703 219.500 C 71.904 212.919,71.868 212.215,71.457 214.700 M99.353 221.800 C 99.353 224.440,99.418 225.468,99.497 224.084 C 99.575 222.701,99.574 220.541,99.495 219.284 C 99.416 218.028,99.352 219.160,99.353 221.800 M184.456 225.600 C 184.456 225.930,184.611 226.560,184.800 227.000 C 185.017 227.504,185.144 227.578,185.144 227.200 C 185.144 226.870,184.989 226.240,184.800 225.800 C 184.583 225.296,184.456 225.222,184.456 225.600 M287.600 225.600 L 286.600 225.920 287.600 225.913 C 288.150 225.909,289.140 225.768,289.800 225.600 L 291.000 225.295 289.800 225.287 C 289.140 225.283,288.150 225.424,287.600 225.600 M320.000 225.600 C 320.550 225.776,321.450 225.920,322.000 225.920 L 323.000 225.920 322.000 225.600 C 321.450 225.424,320.550 225.280,320.000 225.280 L 319.000 225.280 320.000 225.600 M283.200 226.400 L 282.200 226.720 283.200 226.720 C 283.750 226.720,284.650 226.576,285.200 226.400 L 286.200 226.080 285.200 226.080 C 284.650 226.080,283.750 226.224,283.200 226.400 M324.400 226.400 C 324.950 226.576,325.850 226.720,326.400 226.720 L 327.400 226.720 326.400 226.400 C 325.850 226.224,324.950 226.080,324.400 226.080 L 323.400 226.080 324.400 226.400 M280.943 227.405 C 280.618 228.251,281.517 229.200,282.643 229.200 C 283.163 229.200,284.356 229.373,285.294 229.586 C 289.410 230.516,293.328 231.205,293.504 231.029 C 293.696 230.837,293.059 230.670,289.400 229.949 C 288.300 229.732,286.632 229.385,285.694 229.177 C 284.756 228.970,283.586 228.797,283.094 228.794 C 281.620 228.784,280.950 228.183,281.575 227.430 C 281.940 226.990,281.959 226.800,281.636 226.800 C 281.383 226.800,281.070 227.072,280.943 227.405 M327.990 227.063 C 328.648 227.390,328.462 228.330,327.700 228.532 C 327.315 228.634,325.920 228.915,324.600 229.157 C 318.713 230.234,316.307 230.761,316.063 231.027 C 315.918 231.184,316.250 231.210,316.800 231.084 C 317.350 230.958,319.960 230.467,322.600 229.992 C 325.240 229.517,327.670 228.990,328.000 228.820 C 328.731 228.445,328.796 227.106,328.090 226.963 C 327.810 226.907,327.764 226.952,327.990 227.063 M99.687 228.600 C 99.683 229.260,99.824 230.250,100.000 230.800 L 100.320 231.800 100.313 230.800 C 100.309 230.250,100.168 229.260,100.000 228.600 L 99.695 227.400 99.687 228.600 M296.200 232.385 C 297.742 233.134,298.864 233.998,299.339 234.803 C 299.745 235.492,300.165 235.969,300.271 235.862 C 301.022 235.111,296.078 231.196,294.400 231.214 C 294.070 231.218,294.880 231.745,296.200 232.385 M312.835 232.219 C 310.252 233.695,309.439 234.782,308.061 238.600 C 307.414 240.392,306.304 246.315,306.506 246.895 C 306.603 247.173,306.808 246.590,306.962 245.600 C 308.257 237.273,309.936 234.023,313.916 232.138 C 314.952 231.648,315.530 231.238,315.200 231.228 C 314.870 231.218,313.806 231.664,312.835 232.219 M100.400 232.330 C 100.400 232.945,102.296 238.188,103.318 240.400 C 106.264 246.778,112.756 254.186,118.200 257.382 C 119.633 258.224,118.784 257.421,116.334 255.619 C 114.698 254.416,109.446 249.178,107.692 247.000 C 105.926 244.809,102.592 238.157,101.567 234.781 C 100.804 232.269,100.400 231.421,100.400 232.330 M72.846 237.000 C 72.827 237.660,72.987 238.470,73.200 238.800 C 73.690 239.558,73.690 238.330,73.200 236.800 C 72.886 235.820,72.879 235.824,72.846 237.000 M300.572 237.000 C 300.856 237.787,301.907 241.959,302.764 245.706 C 303.004 246.754,303.203 248.104,303.206 248.706 C 303.209 249.308,303.396 250.070,303.621 250.400 C 303.916 250.833,303.962 250.554,303.786 249.400 C 302.818 243.040,301.449 237.438,300.659 236.600 C 300.420 236.346,300.388 236.493,300.572 237.000 M73.631 240.500 C 73.680 241.297,75.135 245.056,75.169 244.475 C 75.186 244.186,74.909 243.061,74.554 241.975 C 73.926 240.054,73.568 239.483,73.631 240.500 M200.000 242.782 C 200.330 243.005,200.945 243.191,201.367 243.194 C 202.390 243.202,202.071 242.973,200.600 242.644 C 199.724 242.448,199.562 242.485,200.000 242.782 M75.200 245.362 C 75.200 246.087,78.413 253.320,78.637 253.097 C 78.730 253.003,78.175 251.560,77.403 249.890 C 76.631 248.219,76.000 246.581,76.000 246.250 C 76.000 245.918,75.820 245.536,75.600 245.400 C 75.380 245.264,75.200 245.247,75.200 245.362 M305.838 249.278 C 305.587 250.744,305.328 251.192,304.658 251.323 C 303.829 251.485,303.830 251.493,304.710 251.546 C 305.757 251.608,306.526 250.096,306.299 248.423 C 306.197 247.667,306.077 247.889,305.838 249.278 M228.427 251.866 C 227.184 252.737,227.291 252.969,232.486 260.621 C 236.609 266.695,239.487 271.611,240.176 273.757 C 240.309 274.174,240.526 274.407,240.657 274.277 C 241.323 273.610,237.199 266.520,231.306 258.200 C 228.619 254.407,228.241 253.677,228.353 252.500 C 228.465 251.310,230.474 252.279,236.732 256.545 C 240.399 259.045,244.030 261.396,244.800 261.769 L 246.200 262.448 245.200 261.633 C 244.650 261.185,244.056 260.814,243.879 260.809 C 243.703 260.804,240.733 258.848,237.279 256.462 C 229.322 250.964,229.548 251.081,228.427 251.866 M276.679 253.125 C 275.182 254.156,272.054 256.312,269.727 257.916 C 261.297 263.728,255.814 265.589,251.000 264.272 C 250.044 264.010,249.900 264.045,250.290 264.442 C 250.977 265.140,257.025 265.147,258.800 264.452 C 262.175 263.130,266.253 260.769,272.468 256.539 C 279.546 251.721,281.019 251.125,280.715 253.200 C 280.618 253.860,280.687 254.400,280.869 254.400 C 281.573 254.400,281.195 252.025,280.426 251.614 C 279.458 251.096,279.856 250.936,276.679 253.125 M78.852 253.800 C 81.607 261.035,92.852 273.898,101.640 279.866 C 107.683 283.970,119.226 289.660,118.226 288.043 C 118.076 287.799,117.658 287.600,117.299 287.600 C 115.077 287.600,102.952 280.687,97.400 276.256 C 91.251 271.347,84.299 263.123,80.785 256.600 C 79.618 254.434,78.448 252.739,78.852 253.800 M277.575 258.491 C 274.565 262.788,274.006 263.699,275.057 262.600 C 276.226 261.378,280.510 255.177,280.318 254.985 C 280.225 254.892,278.991 256.470,277.575 258.491 M119.741 258.305 C 120.139 258.949,127.573 262.417,128.460 262.373 C 128.757 262.358,128.550 262.154,128.000 261.919 C 127.450 261.684,126.370 261.221,125.600 260.890 C 124.830 260.559,123.147 259.762,121.861 259.119 C 120.574 258.475,119.620 258.109,119.741 258.305 M129.800 262.800 C 130.996 263.314,131.995 263.314,131.200 262.800 C 130.870 262.587,130.240 262.422,129.800 262.434 L 129.000 262.456 129.800 262.800 M133.000 263.600 C 133.440 263.789,134.250 263.938,134.800 263.932 L 135.800 263.920 134.800 263.600 C 134.250 263.424,133.440 263.274,133.000 263.268 L 132.200 263.256 133.000 263.600 M272.552 265.900 C 270.556 269.018,268.314 273.541,268.495 274.084 C 268.576 274.328,268.975 273.644,269.381 272.564 C 269.787 271.484,270.452 270.122,270.859 269.538 C 271.267 268.954,271.600 268.373,271.600 268.246 C 271.600 268.119,272.236 267.022,273.012 265.808 C 273.789 264.593,274.335 263.600,274.225 263.600 C 274.115 263.600,273.362 264.635,272.552 265.900 M138.600 264.418 C 139.700 264.590,155.180 264.711,173.000 264.688 C 200.054 264.652,202.859 264.601,190.000 264.380 C 168.809 264.014,136.161 264.039,138.600 264.418 M207.000 265.200 C 207.440 265.389,208.070 265.544,208.400 265.544 C 208.778 265.544,208.704 265.417,208.200 265.200 C 207.760 265.011,207.130 264.856,206.800 264.856 C 206.422 264.856,206.496 264.983,207.000 265.200 M216.800 270.600 C 217.546 271.370,218.247 272.000,218.357 272.000 C 218.467 272.000,217.946 271.370,217.200 270.600 C 216.454 269.830,215.753 269.200,215.643 269.200 C 215.533 269.200,216.054 269.830,216.800 270.600 M219.199 273.500 C 219.722 274.215,220.213 274.800,220.289 274.800 C 220.593 274.800,219.601 273.300,218.945 272.767 C 218.513 272.416,218.610 272.696,219.199 273.500 M240.941 278.200 C 240.941 280.338,241.059 281.394,241.231 280.800 C 241.390 280.250,241.520 279.080,241.520 278.200 C 241.520 277.320,241.390 276.150,241.231 275.600 C 241.059 275.006,240.941 276.062,240.941 278.200 M267.852 275.700 C 267.516 276.955,267.552 280.505,267.906 281.062 C 268.068 281.316,268.200 280.011,268.200 278.162 C 268.200 274.448,268.196 274.418,267.852 275.700 M238.907 285.516 C 237.443 288.530,234.304 293.795,233.611 294.400 C 233.068 294.874,232.009 296.800,232.292 296.800 C 233.070 296.800,239.713 285.649,240.572 282.900 C 241.085 281.261,240.620 281.992,238.907 285.516 M268.400 282.349 C 268.400 283.466,272.444 290.934,273.352 291.493 C 273.598 291.645,273.476 291.273,273.079 290.667 C 271.422 288.134,270.097 285.684,269.416 283.900 C 268.724 282.085,268.400 281.591,268.400 282.349 M120.600 289.200 C 121.700 289.606,122.960 289.939,123.400 289.941 C 123.840 289.943,123.210 289.602,122.000 289.183 C 119.179 288.208,117.951 288.223,120.600 289.200 M223.254 290.700 L 223.200 292.000 180.070 292.000 C 143.657 292.000,136.265 291.905,132.611 291.392 C 130.230 291.058,128.200 290.867,128.100 290.967 C 128.000 291.067,128.522 291.239,129.259 291.349 C 129.997 291.460,131.895 291.741,133.477 291.975 C 135.370 292.255,151.209 292.400,179.790 292.400 C 226.797 292.400,223.907 292.537,223.486 290.329 C 223.351 289.622,223.296 289.710,223.254 290.700 M125.000 290.400 C 125.440 290.589,126.250 290.738,126.800 290.732 L 127.800 290.720 126.800 290.400 C 126.250 290.224,125.440 290.074,125.000 290.068 L 124.200 290.056 125.000 290.400 M251.600 291.653 C 249.782 292.148,244.239 294.772,244.487 295.021 C 244.592 295.126,245.471 294.774,246.439 294.239 C 254.202 289.950,258.771 290.972,271.519 299.852 C 278.507 304.719,279.489 305.289,280.393 305.002 C 281.649 304.604,281.389 302.879,279.697 300.400 C 277.149 296.665,274.280 292.620,273.882 292.200 C 273.054 291.328,274.456 293.584,276.864 297.000 C 280.460 302.101,280.800 302.671,280.800 303.598 C 280.800 305.085,279.662 304.954,277.088 303.170 C 260.940 291.979,256.979 290.189,251.600 291.653 M236.872 299.867 C 233.093 302.433,230.071 304.605,230.159 304.692 C 230.293 304.826,242.669 296.504,243.780 295.532 C 245.042 294.428,242.927 295.755,236.872 299.867 M231.108 297.900 C 229.143 300.132,227.527 303.309,227.932 304.145 C 228.324 304.954,228.347 304.940,228.373 303.881 C 228.388 303.265,229.075 301.735,229.900 300.481 C 232.039 297.229,232.056 297.200,231.882 297.200 C 231.795 297.200,231.447 297.515,231.108 297.900 " stroke="none" fill="#aba7ed" fill-rule="evenodd"></path><path id="path4" d="M190.320 95.233 C 188.626 95.412,185.926 95.851,184.320 96.209 C 182.714 96.566,180.950 96.949,180.400 97.059 C 179.850 97.170,179.040 97.402,178.600 97.575 C 178.160 97.748,177.080 98.105,176.200 98.370 C 174.015 99.026,167.693 101.600,166.100 102.481 C 156.603 107.735,153.247 110.414,140.670 122.786 C 131.467 131.839,131.903 130.642,136.295 134.806 C 143.565 141.698,153.538 144.083,160.523 140.599 C 161.183 140.269,161.885 140.000,162.083 140.000 C 162.707 140.000,166.920 136.931,168.857 135.066 C 174.301 129.825,181.518 126.084,190.106 124.051 C 192.583 123.465,203.837 123.468,206.294 124.056 C 222.887 128.027,234.761 139.068,238.714 154.200 C 238.944 155.080,239.357 156.520,239.633 157.400 C 240.009 158.602,240.198 167.895,240.395 194.800 C 240.632 227.154,240.722 230.766,241.337 232.329 C 245.352 242.545,253.393 247.843,264.400 247.522 L 268.600 247.400 268.604 204.200 L 268.607 161.000 268.404 204.000 L 268.200 247.000 263.303 246.936 C 252.388 246.792,245.338 241.849,241.720 231.800 C 241.054 229.949,240.984 227.136,240.779 194.000 C 240.610 166.698,240.437 157.820,240.050 156.600 C 239.771 155.720,239.182 153.830,238.741 152.400 C 235.167 140.806,225.870 130.730,214.370 125.988 C 212.786 125.334,211.242 124.800,210.940 124.800 C 210.637 124.800,210.077 124.636,209.695 124.435 C 206.943 122.991,194.632 122.443,189.800 123.550 C 181.541 125.442,175.169 128.768,168.590 134.621 C 157.531 144.459,146.130 144.060,135.442 133.462 L 133.085 131.125 139.442 124.736 C 152.157 111.959,158.532 106.869,167.200 102.573 C 204.782 83.947,251.599 103.227,264.394 142.600 C 264.894 144.140,265.447 145.760,265.622 146.200 C 266.219 147.702,267.119 152.442,267.631 156.782 C 268.148 161.169,268.581 161.545,268.271 157.339 C 268.048 154.307,267.855 153.189,266.727 148.400 C 264.486 138.889,258.717 127.612,252.200 120.007 C 248.263 115.413,239.588 107.600,238.423 107.600 C 238.191 107.600,238.000 107.453,238.000 107.274 C 238.000 107.094,237.248 106.509,236.329 105.974 C 235.410 105.438,233.835 104.505,232.829 103.900 C 229.772 102.061,224.571 99.758,220.200 98.308 C 217.773 97.502,217.205 97.354,212.243 96.238 C 206.300 94.901,197.334 94.490,190.320 95.233 M139.715 151.496 C 140.988 151.576,142.968 151.575,144.115 151.494 C 145.262 151.414,144.220 151.349,141.800 151.350 C 139.380 151.351,138.442 151.416,139.715 151.496 M130.800 152.021 C 130.152 152.242,130.645 152.280,132.200 152.131 C 133.520 152.004,134.675 151.832,134.767 151.750 C 135.090 151.459,131.786 151.684,130.800 152.021 M149.800 152.023 C 150.680 152.205,151.850 152.346,152.400 152.337 L 153.400 152.320 152.400 152.000 C 151.850 151.824,150.680 151.683,149.800 151.686 L 148.200 151.692 149.800 152.023 M126.600 152.800 C 125.522 153.074,125.502 153.106,126.400 153.113 C 126.950 153.117,127.850 152.976,128.400 152.800 C 129.744 152.369,128.292 152.369,126.600 152.800 M155.400 152.859 C 183.170 159.385,201.674 177.019,209.904 204.800 C 210.208 205.828,210.329 205.962,210.359 205.306 C 210.429 203.779,207.663 196.020,205.330 191.200 C 196.141 172.213,178.988 158.309,158.400 153.160 C 156.750 152.747,155.040 152.426,154.600 152.446 C 154.160 152.466,154.520 152.652,155.400 152.859 M122.856 153.659 C 122.117 153.872,121.590 154.123,121.685 154.218 C 121.780 154.313,122.654 154.140,123.629 153.835 C 125.618 153.211,124.945 153.058,122.856 153.659 M119.200 154.818 C 118.762 155.115,118.924 155.152,119.800 154.956 C 121.271 154.627,121.590 154.398,120.567 154.406 C 120.145 154.409,119.530 154.595,119.200 154.818 M99.585 165.229 L 98.200 166.458 99.700 165.381 C 101.026 164.430,101.457 164.000,101.085 164.000 C 101.022 164.000,100.347 164.553,99.585 165.229 M91.992 171.900 L 88.200 175.800 92.100 172.008 C 95.722 168.486,96.182 168.000,95.892 168.000 C 95.833 168.000,94.078 169.755,91.992 171.900 M140.200 179.624 C 136.620 179.848,136.628 179.849,141.700 179.924 C 144.505 179.966,146.800 179.929,146.800 179.842 C 146.800 179.512,143.663 179.409,140.200 179.624 M133.000 180.400 C 132.496 180.617,132.422 180.744,132.800 180.744 C 133.130 180.744,133.760 180.589,134.200 180.400 C 134.704 180.183,134.778 180.056,134.400 180.056 C 134.070 180.056,133.440 180.211,133.000 180.400 M149.400 180.400 C 149.840 180.589,150.560 180.744,151.000 180.744 L 151.800 180.744 151.000 180.400 C 150.560 180.211,149.840 180.056,149.400 180.056 L 148.600 180.056 149.400 180.400 M152.800 181.182 C 153.130 181.405,153.745 181.591,154.167 181.594 C 155.190 181.602,154.871 181.373,153.400 181.044 C 152.524 180.848,152.362 180.885,152.800 181.182 M155.416 182.026 C 155.543 182.232,155.913 182.400,156.237 182.400 C 156.561 182.400,157.739 182.862,158.853 183.427 C 159.968 183.992,160.967 184.367,161.073 184.260 C 161.179 184.154,160.397 183.674,159.333 183.193 C 156.795 182.046,155.120 181.547,155.416 182.026 M163.400 185.459 C 163.620 185.666,165.181 186.871,166.869 188.136 C 170.171 190.612,174.543 195.025,176.251 197.605 C 177.484 199.469,178.048 199.784,176.897 197.966 C 175.215 195.308,171.952 191.683,168.999 189.187 C 167.210 187.675,162.234 184.362,163.400 185.459 M179.310 202.700 C 180.134 204.270,181.200 206.906,181.200 207.372 C 181.200 207.691,181.399 208.076,181.643 208.226 C 181.947 208.415,181.993 208.203,181.788 207.550 C 181.319 206.056,179.599 202.400,179.365 202.400 C 179.248 202.400,179.224 202.535,179.310 202.700 M210.642 208.000 C 211.800 216.402,211.915 217.013,211.958 215.024 C 212.001 213.013,211.380 209.010,210.745 207.200 C 210.497 206.494,210.467 206.730,210.642 208.000 M182.034 209.400 C 182.022 209.840,182.187 210.470,182.400 210.800 C 182.914 211.595,182.914 210.596,182.400 209.400 L 182.056 208.600 182.034 209.400 M182.856 212.600 C 182.856 213.040,183.011 213.760,183.200 214.200 L 183.544 215.000 183.544 214.200 C 183.544 213.760,183.389 213.040,183.200 212.600 L 182.856 211.800 182.856 212.600 M183.875 220.800 C 183.999 223.330,184.167 225.475,184.250 225.567 C 184.552 225.902,184.344 219.353,184.003 217.800 C 183.767 216.728,183.725 217.718,183.875 220.800 M212.094 230.747 L 212.000 243.695 206.770 243.532 C 203.894 243.442,201.869 243.498,202.270 243.656 C 203.616 244.187,212.005 244.052,212.218 243.496 C 212.325 243.219,212.361 237.324,212.300 230.396 L 212.188 217.800 212.094 230.747 M99.701 226.200 C 99.705 227.080,99.787 227.393,99.883 226.895 C 99.979 226.398,99.975 225.678,99.875 225.295 C 99.775 224.913,99.696 225.320,99.701 226.200 M184.595 227.600 C 184.754 228.370,185.039 229.165,185.228 229.366 C 185.417 229.567,185.379 229.027,185.144 228.166 C 184.596 226.159,184.218 225.769,184.595 227.600 M187.221 233.489 C 187.209 233.759,188.304 235.109,189.654 236.489 C 191.347 238.221,191.564 238.380,190.353 237.000 C 189.388 235.900,188.293 234.550,187.920 234.000 C 187.547 233.450,187.233 233.220,187.221 233.489 M193.400 240.022 C 195.323 241.332,197.658 242.475,197.905 242.228 C 198.031 242.103,197.958 242.000,197.743 242.000 C 197.529 242.000,196.307 241.370,195.028 240.600 C 192.494 239.074,191.478 238.714,193.400 240.022 M136.505 263.887 C 137.114 263.979,138.014 263.977,138.505 263.882 C 138.997 263.787,138.500 263.711,137.400 263.714 C 136.300 263.717,135.897 263.795,136.505 263.887 M184.474 264.299 C 188.145 264.365,194.265 264.365,198.074 264.299 C 201.883 264.234,198.880 264.180,191.400 264.180 C 183.920 264.179,180.803 264.233,184.474 264.299 M212.400 266.958 C 212.400 267.045,213.300 267.694,214.400 268.400 C 215.500 269.106,217.230 270.609,218.245 271.742 C 219.917 273.606,219.966 273.635,218.769 272.046 C 217.068 269.789,212.400 266.060,212.400 266.958 M220.600 275.200 C 220.941 275.860,221.311 276.400,221.421 276.400 C 221.531 276.400,221.341 275.860,221.000 275.200 C 220.659 274.540,220.289 274.000,220.179 274.000 C 220.069 274.000,220.259 274.540,220.600 275.200 M223.400 287.197 C 223.400 290.015,223.535 292.238,223.700 292.137 C 224.087 291.899,224.081 283.148,223.694 282.537 C 223.532 282.282,223.400 284.380,223.400 287.197 " stroke="none" fill="#daaedd" fill-rule="evenodd"></path></g></svg>